<svg width="1001" height="897" viewBox="0 0 1001 897" fill="none" xmlns="http://www.w3.org/2000/svg">
<path d="M201.231 181.186L179.481 223.079V246.909H168.7V223.079L146.856 181.186H158.866L174.091 213.433L189.316 181.186H201.231ZM256.596 219.58C256.596 221.534 256.47 223.299 256.217 224.875H216.406C216.721 229.036 218.265 232.378 221.039 234.899C223.813 237.421 227.218 238.682 231.252 238.682C237.052 238.682 241.15 236.255 243.546 231.4H255.177C253.601 236.192 250.733 240.132 246.572 243.221C242.474 246.247 237.367 247.76 231.252 247.76C226.272 247.76 221.796 246.657 217.824 244.45C213.915 242.181 210.826 239.029 208.557 234.994C206.35 230.896 205.247 226.168 205.247 220.809C205.247 215.45 206.319 210.754 208.462 206.719C210.669 202.621 213.726 199.469 217.635 197.262C221.607 195.056 226.146 193.953 231.252 193.953C236.17 193.953 240.551 195.024 244.397 197.168C248.242 199.311 251.237 202.337 253.381 206.246C255.524 210.092 256.596 214.536 256.596 219.58ZM245.342 216.175C245.279 212.204 243.861 209.02 241.087 206.624C238.313 204.229 234.877 203.031 230.779 203.031C227.06 203.031 223.876 204.229 221.228 206.624C218.581 208.957 217.004 212.141 216.5 216.175H245.342ZM314.014 219.58C314.014 221.534 313.888 223.299 313.636 224.875H273.824C274.139 229.036 275.684 232.378 278.458 234.899C281.232 237.421 284.636 238.682 288.671 238.682C294.471 238.682 298.569 236.255 300.964 231.4H312.596C311.02 236.192 308.151 240.132 303.991 243.221C299.893 246.247 294.786 247.76 288.671 247.76C283.691 247.76 279.214 246.657 275.243 244.45C271.334 242.181 268.245 239.029 265.975 234.994C263.769 230.896 262.666 226.168 262.666 220.809C262.666 215.45 263.737 210.754 265.881 206.719C268.087 202.621 271.145 199.469 275.054 197.262C279.025 195.056 283.564 193.953 288.671 193.953C293.588 193.953 297.97 195.024 301.816 197.168C305.661 199.311 308.656 202.337 310.799 206.246C312.943 210.092 314.014 214.536 314.014 219.58ZM302.761 216.175C302.698 212.204 301.28 209.02 298.506 206.624C295.732 204.229 292.296 203.031 288.198 203.031C284.479 203.031 281.295 204.229 278.647 206.624C275.999 208.957 274.423 212.141 273.919 216.175H302.761ZM344.293 220.904L368.312 246.909H353.749L334.458 224.497V246.909H323.678V176.931H334.458V217.594L353.371 194.804H368.312L344.293 220.904ZM371.5 220.62C371.5 215.387 372.572 210.754 374.716 206.719C376.922 202.684 379.885 199.564 383.605 197.357C387.387 195.087 391.548 193.953 396.087 193.953C400.185 193.953 403.747 194.772 406.773 196.411C409.862 197.987 412.321 199.973 414.149 202.369V194.804H425.024V246.909H414.149V239.155C412.321 241.613 409.831 243.662 406.679 245.301C403.526 246.941 399.933 247.76 395.898 247.76C391.422 247.76 387.324 246.625 383.605 244.356C379.885 242.023 376.922 238.808 374.716 234.71C372.572 230.549 371.5 225.853 371.5 220.62ZM414.149 220.809C414.149 217.216 413.393 214.095 411.88 211.447C410.43 208.799 408.507 206.782 406.111 205.395C403.715 204.008 401.131 203.315 398.357 203.315C395.583 203.315 392.998 204.008 390.602 205.395C388.207 206.719 386.252 208.705 384.739 211.353C383.289 213.937 382.564 217.027 382.564 220.62C382.564 224.213 383.289 227.366 384.739 230.076C386.252 232.787 388.207 234.868 390.602 236.318C393.061 237.705 395.646 238.398 398.357 238.398C401.131 238.398 403.715 237.705 406.111 236.318C408.507 234.931 410.43 232.913 411.88 230.266C413.393 227.555 414.149 224.403 414.149 220.809ZM443.723 187.9C441.769 187.9 440.129 187.239 438.805 185.915C437.482 184.591 436.82 182.952 436.82 180.997C436.82 179.043 437.482 177.404 438.805 176.08C440.129 174.756 441.769 174.094 443.723 174.094C445.614 174.094 447.222 174.756 448.546 176.08C449.87 177.404 450.532 179.043 450.532 180.997C450.532 182.952 449.87 184.591 448.546 185.915C447.222 187.239 445.614 187.9 443.723 187.9ZM449.019 194.804V246.909H438.238V194.804H449.019Z" fill="#302F2E"/>
<path d="M147.26 316.249C163.507 312.074 176.758 306.175 186.924 299.912C196.181 294.194 206.528 285.118 212.428 277.947L222.23 287.205C213.971 295.555 202.898 304.087 192.188 310.531C181.932 316.612 167.228 323.42 152.887 327.685L147.26 316.249ZM185.018 305.812L197.906 302.726V343.66C197.906 347.653 198.087 353.281 198.723 355.55H184.291C184.654 353.371 185.018 347.653 185.018 343.66V305.812ZM243.127 288.113C245.487 288.476 249.299 288.748 251.75 288.748H301.216C303.938 288.748 307.115 288.476 309.656 288.113V300.638C307.024 300.366 303.848 300.184 301.216 300.184H251.75C249.299 300.184 245.487 300.366 243.127 300.638V288.113ZM269.358 344.023V295.101H281.974V344.023H269.358ZM237.318 336.58C240.223 337.034 243.49 337.306 246.213 337.306H306.117C309.293 337.306 312.198 336.852 314.558 336.58V349.65C312.016 349.378 308.204 349.287 306.117 349.287H246.213C243.581 349.287 240.314 349.378 237.318 349.65V336.58ZM368.743 278.673C368.471 280.852 368.199 284.664 368.108 286.842C367.109 322.875 358.578 341.3 338.519 355.55L327.9 347.018C331.712 344.93 336.25 341.935 339.881 338.214C351.771 326.415 355.946 310.985 356.036 287.024C356.036 285.027 355.673 280.852 355.31 278.673H368.743ZM399.512 298.187C399.24 299.64 398.967 301.909 398.967 302.907C398.604 312.8 397.424 338.123 393.522 347.381C391.616 351.919 388.076 354.37 381.904 354.37C376.64 354.37 371.285 353.916 366.837 353.553L365.385 341.481C369.923 342.208 374.552 342.752 378.183 342.752C381.087 342.752 382.358 341.754 383.265 339.485C385.897 333.767 387.168 315.614 387.168 305.812H342.876C339.79 305.812 334.707 305.902 330.895 306.265V294.285C334.707 294.738 339.336 294.92 342.785 294.92H384.808C387.168 294.92 389.528 294.738 391.706 294.285L399.512 298.187ZM415.94 316.249C432.187 312.074 445.438 306.175 455.603 299.912C464.861 294.194 475.208 285.118 481.108 277.947L490.91 287.205C482.651 295.555 471.578 304.087 460.868 310.531C450.612 316.612 435.908 323.42 421.567 327.685L415.94 316.249ZM453.697 305.812L466.586 302.726V343.66C466.586 347.653 466.767 353.281 467.403 355.55H452.971C453.334 353.371 453.697 347.653 453.697 343.66V305.812Z" fill="#302F2E"/>
<path d="M716.291 327.308C700.873 336.21 681.159 330.927 672.258 315.51C663.356 300.092 668.639 280.377 684.056 271.476L724.061 248.379L724.061 200.351C724.061 182.548 738.493 168.116 756.296 168.116C774.099 168.116 788.531 182.548 788.531 200.351L788.531 247.464L830.121 271.476C845.539 280.377 850.821 300.092 841.92 315.51C833.019 330.927 813.304 336.21 797.886 327.308L757.089 303.754L716.291 327.308Z" fill="#07E1FD"/>
<path d="M716.291 207.272C700.874 198.37 681.159 203.653 672.258 219.071C663.356 234.49 668.639 254.205 684.057 263.107L724.062 286.203V334.231C724.062 352.035 738.494 366.467 756.298 366.467C774.099 366.467 788.532 352.035 788.532 334.231V287.118L830.121 263.107C845.54 254.205 850.823 234.49 841.921 219.071C833.019 203.653 813.304 198.37 797.887 207.272L757.09 230.827L716.291 207.272Z" fill="url(#paint0_linear_855_1984)"/>
<g filter="url(#filter0_d_855_1984)">
<path d="M788.498 244.755C788.498 246.595 786.508 247.746 784.913 246.829L724.061 211.827V200.128C724.061 182.334 738.486 167.909 756.28 167.909C774.074 167.909 788.498 182.334 788.498 200.128L788.498 244.755Z" fill="url(#paint1_linear_855_1984)" shape-rendering="crispEdges"/>
<path d="M720.445 249.043C722.04 248.095 724.059 249.244 724.06 251.099L724.061 322.906L717.043 327.141C701.592 336.467 681.495 331.29 672.471 315.661L672.007 314.857C663.186 299.578 668.287 280.045 683.453 271.03L720.445 249.043Z" fill="url(#paint2_linear_855_1984)" shape-rendering="crispEdges"/>
<path d="M761.426 306.748C759.806 305.839 759.794 303.511 761.406 302.586L822.951 267.272L829.901 271.108C845.701 279.828 851.237 299.865 842.214 315.493C833.392 330.774 813.898 336.167 798.508 327.538L761.426 306.748Z" fill="url(#paint3_linear_855_1984)" shape-rendering="crispEdges"/>
</g>
<path d="M167.848 409.009L150.755 449.706H146.682L163.739 409.009H167.848ZM172.746 420.647C172.092 420.647 171.558 420.441 171.146 420.029C170.734 419.617 170.528 419.095 170.528 418.465C170.528 417.616 170.843 416.889 171.473 416.283C172.128 415.652 172.868 415.337 173.692 415.337C174.347 415.337 174.868 415.543 175.256 415.955C175.668 416.368 175.874 416.889 175.874 417.519C175.874 418.368 175.559 419.107 174.929 419.738C174.298 420.344 173.571 420.647 172.746 420.647ZM170.091 447.269C169.752 449.233 169.012 450.652 167.873 451.525C166.733 452.422 165.23 452.87 163.363 452.87H161.217L161.836 449.379H163.254C164.103 449.379 164.733 449.209 165.145 448.87C165.557 448.554 165.824 448.021 165.945 447.269L170.164 423.302H174.31L170.091 447.269ZM181.972 420.647C181.318 420.647 180.784 420.441 180.372 420.029C179.96 419.617 179.754 419.095 179.754 418.465C179.754 417.616 180.069 416.889 180.699 416.283C181.354 415.652 182.093 415.337 182.918 415.337C183.573 415.337 184.094 415.543 184.482 415.955C184.894 416.368 185.1 416.889 185.1 417.519C185.1 418.368 184.785 419.107 184.154 419.738C183.524 420.344 182.797 420.647 181.972 420.647ZM183.536 423.302L180.008 443.342H175.862L179.39 423.302H183.536ZM186.725 443.596C186.07 443.596 185.537 443.39 185.124 442.978C184.712 442.566 184.506 442.044 184.506 441.414C184.506 440.565 184.821 439.838 185.452 439.232C186.106 438.601 186.846 438.286 187.67 438.286C188.325 438.286 188.846 438.492 189.234 438.904C189.646 439.317 189.852 439.838 189.852 440.468C189.852 441.317 189.537 442.057 188.907 442.687C188.276 443.293 187.549 443.596 186.725 443.596ZM203.171 433.34L210.663 443.342H205.062L199.171 434.722L197.643 443.342H193.497L198.261 416.428H202.408L199.643 432.031L208.445 423.302H214.191L203.171 433.34ZM213.671 433.231C214.035 431.218 214.763 429.436 215.854 427.885C216.969 426.333 218.327 425.133 219.927 424.284C221.527 423.411 223.2 422.975 224.946 422.975C226.522 422.975 227.843 423.29 228.91 423.92C229.977 424.527 230.777 425.29 231.311 426.212L231.82 423.302H236.002L232.474 443.342H228.292L228.837 440.359C227.965 441.305 226.861 442.093 225.528 442.723C224.219 443.354 222.788 443.669 221.236 443.669C219.733 443.669 218.387 443.329 217.199 442.651C216.035 441.972 215.114 441.014 214.435 439.777C213.781 438.517 213.453 437.074 213.453 435.449C213.453 434.722 213.526 433.983 213.671 433.231ZM230.074 433.304C230.171 432.843 230.22 432.346 230.22 431.812C230.22 430.188 229.735 428.915 228.765 427.994C227.819 427.048 226.631 426.575 225.201 426.575C224.134 426.575 223.091 426.842 222.073 427.375C221.054 427.885 220.169 428.648 219.418 429.667C218.666 430.661 218.169 431.849 217.927 433.231C217.83 433.692 217.781 434.189 217.781 434.722C217.781 436.371 218.254 437.68 219.2 438.65C220.169 439.596 221.37 440.068 222.8 440.068C223.867 440.068 224.91 439.802 225.928 439.268C226.946 438.735 227.831 437.959 228.583 436.941C229.335 435.898 229.832 434.686 230.074 433.304ZM243.667 420.647C243.012 420.647 242.478 420.441 242.066 420.029C241.654 419.617 241.448 419.095 241.448 418.465C241.448 417.616 241.763 416.889 242.394 416.283C243.048 415.652 243.788 415.337 244.612 415.337C245.267 415.337 245.788 415.543 246.176 415.955C246.588 416.368 246.794 416.889 246.794 417.519C246.794 418.368 246.479 419.107 245.849 419.738C245.218 420.344 244.491 420.647 243.667 420.647ZM241.012 447.269C240.672 449.233 239.933 450.652 238.793 451.525C237.653 452.422 236.15 452.87 234.283 452.87H232.137L232.756 449.379H234.174C235.023 449.379 235.653 449.209 236.065 448.87C236.478 448.554 236.744 448.021 236.865 447.269L241.084 423.302H245.23L241.012 447.269ZM266.313 409.009L249.219 449.706H245.146L262.203 409.009H266.313Z" fill="#302F2E"/>
<path d="M602.256 409.009L601.638 412.428H597.964L592 446.287H595.673L595.055 449.743H587.49L594.691 409.009H602.256ZM603.651 433.231C604.014 431.218 604.742 429.436 605.833 427.885C606.948 426.333 608.306 425.133 609.906 424.284C611.506 423.411 613.179 422.975 614.925 422.975C616.501 422.975 617.823 423.29 618.889 423.92C619.956 424.527 620.756 425.29 621.29 426.212L621.799 423.302H625.981L622.454 443.342H618.271L618.817 440.359C617.944 441.305 616.841 442.093 615.507 442.723C614.198 443.354 612.767 443.669 611.216 443.669C609.712 443.669 608.367 443.329 607.179 442.651C606.015 441.972 605.093 441.014 604.414 439.777C603.76 438.517 603.433 437.074 603.433 435.449C603.433 434.722 603.505 433.983 603.651 433.231ZM620.053 433.304C620.15 432.843 620.199 432.346 620.199 431.812C620.199 430.188 619.714 428.915 618.744 427.994C617.798 427.048 616.61 426.575 615.18 426.575C614.113 426.575 613.07 426.842 612.052 427.375C611.034 427.885 610.149 428.648 609.397 429.667C608.645 430.661 608.148 431.849 607.906 433.231C607.809 433.692 607.76 434.189 607.76 434.722C607.76 436.371 608.233 437.68 609.179 438.65C610.149 439.596 611.349 440.068 612.779 440.068C613.846 440.068 614.889 439.802 615.907 439.268C616.926 438.735 617.811 437.959 618.562 436.941C619.314 435.898 619.811 434.686 620.053 433.304ZM634.7 426.248C635.573 425.327 636.664 424.551 637.974 423.92C639.307 423.29 640.738 422.975 642.265 422.975C643.793 422.975 645.151 423.302 646.339 423.957C647.527 424.611 648.448 425.545 649.103 426.757C649.757 427.969 650.085 429.388 650.085 431.012C650.085 431.716 650.012 432.455 649.866 433.231C649.503 435.243 648.763 437.05 647.648 438.65C646.557 440.226 645.211 441.462 643.611 442.36C642.035 443.232 640.374 443.669 638.628 443.669C637.101 443.669 635.792 443.366 634.7 442.76C633.634 442.129 632.797 441.353 632.191 440.432L630.009 452.87H625.863L631.064 423.302H635.21L634.7 426.248ZM645.648 433.231C645.745 432.77 645.793 432.273 645.793 431.74C645.793 430.115 645.308 428.854 644.338 427.957C643.393 427.036 642.193 426.575 640.738 426.575C639.695 426.575 638.653 426.842 637.61 427.375C636.592 427.909 635.707 428.685 634.955 429.703C634.203 430.721 633.706 431.922 633.464 433.304C633.367 433.764 633.318 434.261 633.318 434.795C633.318 436.419 633.791 437.704 634.737 438.65C635.707 439.596 636.907 440.068 638.337 440.068C639.404 440.068 640.447 439.802 641.465 439.268C642.508 438.711 643.405 437.91 644.156 436.868C644.908 435.825 645.405 434.613 645.648 433.231ZM658.985 426.248C659.858 425.327 660.949 424.551 662.259 423.92C663.592 423.29 665.023 422.975 666.55 422.975C668.078 422.975 669.436 423.302 670.624 423.957C671.812 424.611 672.733 425.545 673.388 426.757C674.042 427.969 674.37 429.388 674.37 431.012C674.37 431.716 674.297 432.455 674.151 433.231C673.788 435.243 673.048 437.05 671.933 438.65C670.842 440.226 669.496 441.462 667.896 442.36C666.32 443.232 664.659 443.669 662.913 443.669C661.386 443.669 660.077 443.366 658.985 442.76C657.919 442.129 657.082 441.353 656.476 440.432L654.294 452.87H650.148L655.349 423.302H659.495L658.985 426.248ZM669.933 433.231C670.03 432.77 670.078 432.273 670.078 431.74C670.078 430.115 669.593 428.854 668.623 427.957C667.678 427.036 666.478 426.575 665.023 426.575C663.98 426.575 662.938 426.842 661.895 427.375C660.877 427.909 659.992 428.685 659.24 429.703C658.488 430.721 657.991 431.922 657.749 433.304C657.652 433.764 657.603 434.261 657.603 434.795C657.603 436.419 658.076 437.704 659.022 438.65C659.992 439.596 661.192 440.068 662.622 440.068C663.689 440.068 664.732 439.802 665.75 439.268C666.793 438.711 667.69 437.91 668.441 436.868C669.193 435.825 669.69 434.613 669.933 433.231ZM685.016 416.428L680.252 443.342H676.106L680.87 416.428H685.016ZM691.442 420.647C690.787 420.647 690.254 420.441 689.841 420.029C689.429 419.617 689.223 419.095 689.223 418.465C689.223 417.616 689.538 416.889 690.169 416.283C690.823 415.652 691.563 415.337 692.387 415.337C693.042 415.337 693.563 415.543 693.951 415.955C694.363 416.368 694.569 416.889 694.569 417.519C694.569 418.368 694.254 419.107 693.624 419.738C692.993 420.344 692.266 420.647 691.442 420.647ZM693.006 423.302L689.478 443.342H685.332L688.859 423.302H693.006ZM732.956 422.975C735.066 422.975 736.751 423.545 738.012 424.684C739.272 425.824 739.903 427.436 739.903 429.521C739.903 430.079 739.842 430.746 739.721 431.522L737.612 443.342H733.502L735.502 432.14C735.599 431.461 735.648 430.976 735.648 430.685C735.648 429.351 735.272 428.333 734.52 427.63C733.793 426.927 732.774 426.575 731.465 426.575C729.889 426.575 728.556 427.06 727.465 428.03C726.398 428.976 725.719 430.346 725.428 432.14L723.428 443.342H719.318L721.318 432.14C721.415 431.461 721.464 430.976 721.464 430.685C721.464 429.351 721.088 428.333 720.336 427.63C719.609 426.927 718.59 426.575 717.281 426.575C715.705 426.575 714.372 427.06 713.281 428.03C712.214 428.976 711.535 430.346 711.244 432.14V432.031L709.244 443.342H705.097L708.625 423.302H712.771L712.371 425.63C713.171 424.805 714.129 424.163 715.244 423.702C716.384 423.217 717.56 422.975 718.772 422.975C720.373 422.975 721.742 423.314 722.882 423.993C724.046 424.672 724.858 425.654 725.319 426.939C726.119 425.727 727.222 424.769 728.628 424.066C730.035 423.338 731.477 422.975 732.956 422.975ZM751.289 443.669C749.591 443.669 748.1 443.317 746.815 442.614C745.53 441.911 744.524 440.917 743.797 439.632C743.094 438.347 742.742 436.88 742.742 435.231C742.742 432.976 743.263 430.915 744.306 429.048C745.373 427.181 746.827 425.702 748.67 424.611C750.537 423.52 752.61 422.975 754.889 422.975C756.587 422.975 758.09 423.338 759.399 424.066C760.708 424.769 761.727 425.763 762.454 427.048C763.206 428.309 763.582 429.776 763.582 431.449C763.582 433.704 763.036 435.765 761.945 437.632C760.854 439.499 759.375 440.978 757.508 442.069C755.641 443.135 753.568 443.669 751.289 443.669ZM751.798 440.177C753.18 440.177 754.441 439.789 755.58 439.014C756.744 438.213 757.653 437.171 758.308 435.886C758.963 434.577 759.29 433.182 759.29 431.703C759.29 430.03 758.817 428.745 757.872 427.848C756.926 426.927 755.738 426.466 754.307 426.466C752.901 426.466 751.64 426.866 750.525 427.666C749.434 428.442 748.573 429.497 747.943 430.831C747.337 432.14 747.034 433.546 747.034 435.049C747.034 436.674 747.47 437.935 748.343 438.832C749.24 439.729 750.392 440.177 751.798 440.177ZM772.517 426.284C773.39 425.315 774.493 424.527 775.827 423.92C777.16 423.29 778.579 422.975 780.082 422.975C781.634 422.975 782.992 423.302 784.155 423.957C785.344 424.611 786.265 425.545 786.92 426.757C787.574 427.945 787.902 429.352 787.902 430.976C787.902 431.679 787.829 432.431 787.683 433.231C787.32 435.243 786.58 437.05 785.465 438.65C784.374 440.226 783.028 441.462 781.428 442.36C779.852 443.232 778.191 443.669 776.445 443.669C774.893 443.669 773.572 443.366 772.481 442.76C771.39 442.153 770.565 441.378 770.008 440.432L769.499 443.342H765.353L770.117 416.428H774.263L772.517 426.284ZM783.464 433.231C783.561 432.77 783.61 432.273 783.61 431.74C783.61 430.115 783.125 428.854 782.155 427.957C781.21 427.036 780.009 426.575 778.555 426.575C777.512 426.575 776.469 426.842 775.427 427.375C774.408 427.909 773.524 428.685 772.772 429.703C772.02 430.721 771.523 431.922 771.281 433.304C771.184 433.764 771.135 434.261 771.135 434.795C771.135 436.419 771.608 437.704 772.554 438.65C773.524 439.596 774.724 440.068 776.154 440.068C777.221 440.068 778.264 439.802 779.282 439.268C780.325 438.711 781.222 437.91 781.973 436.868C782.725 435.825 783.222 434.613 783.464 433.231ZM795.748 420.647C795.093 420.647 794.56 420.441 794.147 420.029C793.735 419.617 793.529 419.095 793.529 418.465C793.529 417.616 793.844 416.889 794.475 416.283C795.129 415.652 795.869 415.337 796.693 415.337C797.348 415.337 797.869 415.543 798.257 415.955C798.669 416.368 798.875 416.889 798.875 417.519C798.875 418.368 798.56 419.107 797.93 419.738C797.299 420.344 796.572 420.647 795.748 420.647ZM797.311 423.302L793.784 443.342H789.638L793.165 423.302H797.311ZM807.774 416.428L803.01 443.342H798.863L803.628 416.428H807.774ZM820.309 422.975C822.807 422.975 824.795 423.678 826.274 425.084C827.777 426.49 828.529 428.382 828.529 430.758C828.529 431.315 828.468 431.982 828.347 432.758C828.25 433.292 828.08 433.946 827.838 434.722H812.526C812.502 434.892 812.49 435.146 812.49 435.486C812.49 436.916 812.926 438.056 813.799 438.904C814.696 439.753 815.86 440.177 817.291 440.177C819.546 440.177 821.279 439.244 822.492 437.377H826.965C826.044 439.22 824.686 440.735 822.892 441.923C821.097 443.087 819.024 443.669 816.672 443.669C814.999 443.669 813.533 443.342 812.272 442.687C811.011 442.032 810.029 441.099 809.326 439.886C808.623 438.65 808.271 437.207 808.271 435.559C808.271 434.855 808.344 434.104 808.489 433.304C808.853 431.243 809.593 429.436 810.708 427.885C811.823 426.309 813.205 425.096 814.854 424.248C816.527 423.399 818.345 422.975 820.309 422.975ZM824.201 431.74C824.249 431.303 824.274 430.988 824.274 430.794C824.274 429.461 823.825 428.406 822.928 427.63C822.055 426.854 820.916 426.466 819.509 426.466C818.03 426.466 816.697 426.939 815.509 427.885C814.321 428.83 813.508 430.115 813.072 431.74H824.201ZM838.61 450.106H831.045L831.627 446.651H835.3L841.301 412.791H837.628L838.21 409.373H845.775L838.61 450.106Z" fill="#302F2E"/>
<line x1="147.055" y1="491.725" x2="847.039" y2="491.725" stroke="#302F2E" stroke-width="4.98209"/>
<path d="M157.591 572.765C155.4 570.642 153.695 567.932 152.475 564.634C151.278 561.337 150.68 557.802 150.68 554.03C150.68 550.168 151.312 546.543 152.577 543.155C153.842 539.745 155.682 536.956 158.099 534.788H162.876V535.228C160.391 537.599 158.494 540.445 157.184 543.765C155.897 547.085 155.253 550.507 155.253 554.03C155.253 557.463 155.863 560.783 157.083 563.991C158.325 567.175 160.087 569.942 162.368 572.291V572.765H157.591ZM180.098 542.444V546.272H170.239V552.336H177.794V556.097H170.239V566.091H165.496V542.444H180.098ZM187.865 550.236C188.475 549.242 189.266 548.463 190.237 547.898C191.231 547.334 192.36 547.051 193.625 547.051V552.032H192.371C190.88 552.032 189.751 552.382 188.983 553.082C188.238 553.782 187.865 555.002 187.865 556.741V566.091H183.122V547.323H187.865V550.236ZM195.261 556.639C195.261 554.742 195.633 553.059 196.379 551.591C197.147 550.123 198.174 548.994 199.462 548.203C200.772 547.413 202.228 547.018 203.832 547.018C205.232 547.018 206.452 547.3 207.491 547.865C208.552 548.429 209.399 549.141 210.032 549.999V547.323H214.809V566.091H210.032V563.347C209.422 564.228 208.575 564.962 207.491 565.549C206.429 566.114 205.198 566.396 203.798 566.396C202.217 566.396 200.772 565.989 199.462 565.176C198.174 564.363 197.147 563.223 196.379 561.755C195.633 560.264 195.261 558.559 195.261 556.639ZM210.032 556.707C210.032 555.555 209.806 554.572 209.354 553.759C208.902 552.924 208.293 552.291 207.525 551.862C206.757 551.41 205.932 551.185 205.052 551.185C204.171 551.185 203.358 551.399 202.612 551.828C201.867 552.257 201.257 552.89 200.783 553.726C200.331 554.539 200.105 555.51 200.105 556.639C200.105 557.768 200.331 558.762 200.783 559.62C201.257 560.456 201.867 561.1 202.612 561.551C203.38 562.003 204.193 562.229 205.052 562.229C205.932 562.229 206.757 562.014 207.525 561.585C208.293 561.134 208.902 560.501 209.354 559.688C209.806 558.852 210.032 557.859 210.032 556.707ZM229.503 547.051C231.739 547.051 233.545 547.763 234.923 549.186C236.301 550.586 236.99 552.551 236.99 555.081V566.091H232.247V555.724C232.247 554.234 231.874 553.093 231.129 552.303C230.384 551.49 229.367 551.083 228.08 551.083C226.77 551.083 225.731 551.49 224.963 552.303C224.218 553.093 223.845 554.234 223.845 555.724V566.091H219.102V547.323H223.845V549.66C224.477 548.847 225.279 548.215 226.25 547.763C227.244 547.289 228.328 547.051 229.503 547.051ZM249.19 562.331C251.11 562.331 252.364 561.472 252.951 559.756H258.067C257.592 561.585 256.711 563.076 255.424 564.228C254.159 565.38 252.567 566.068 250.647 566.294V567.616C251.889 567.616 252.928 567.932 253.764 568.564C254.622 569.197 255.051 570.111 255.051 571.308C255.051 572.528 254.611 573.465 253.73 574.12C252.872 574.775 251.81 575.103 250.546 575.103H245.735V572.325H249.766C250.308 572.325 250.715 572.246 250.986 572.088C251.28 571.929 251.426 571.647 251.426 571.241C251.426 570.834 251.28 570.552 250.986 570.394C250.715 570.258 250.308 570.19 249.766 570.19H247.666V566.294C246.13 566.068 244.775 565.538 243.601 564.702C242.449 563.844 241.545 562.737 240.89 561.382C240.258 560.004 239.942 558.446 239.942 556.707C239.942 554.764 240.337 553.071 241.127 551.625C241.918 550.157 243.013 549.028 244.414 548.237C245.814 547.424 247.417 547.018 249.224 547.018C251.551 547.018 253.47 547.605 254.984 548.779C256.519 549.931 257.547 551.557 258.067 553.658H252.951C252.68 552.845 252.217 552.212 251.562 551.761C250.93 551.286 250.139 551.049 249.19 551.049C247.835 551.049 246.763 551.546 245.972 552.54C245.182 553.511 244.786 554.9 244.786 556.707C244.786 558.491 245.182 559.88 245.972 560.874C246.763 561.845 247.835 562.331 249.19 562.331ZM259.983 556.639C259.983 554.742 260.355 553.059 261.101 551.591C261.869 550.123 262.896 548.994 264.184 548.203C265.494 547.413 266.95 547.018 268.554 547.018C269.954 547.018 271.174 547.3 272.213 547.865C273.274 548.429 274.121 549.141 274.754 549.999V547.323H279.531V566.091H274.754V563.347C274.144 564.228 273.297 564.962 272.213 565.549C271.151 566.114 269.92 566.396 268.52 566.396C266.939 566.396 265.494 565.989 264.184 565.176C262.896 564.363 261.869 563.223 261.101 561.755C260.355 560.264 259.983 558.559 259.983 556.639ZM274.754 556.707C274.754 555.555 274.528 554.572 274.076 553.759C273.624 552.924 273.015 552.291 272.247 551.862C271.479 551.41 270.654 551.185 269.774 551.185C268.893 551.185 268.08 551.399 267.334 551.828C266.589 552.257 265.979 552.89 265.505 553.726C265.053 554.539 264.827 555.51 264.827 556.639C264.827 557.768 265.053 558.762 265.505 559.62C265.979 560.456 266.589 561.1 267.334 561.551C268.102 562.003 268.915 562.229 269.774 562.229C270.654 562.229 271.479 562.014 272.247 561.585C273.015 561.134 273.624 560.501 274.076 559.688C274.528 558.852 274.754 557.859 274.754 556.707ZM286.229 545.087C285.394 545.087 284.694 544.827 284.129 544.307C283.587 543.765 283.316 543.099 283.316 542.309C283.316 541.518 283.587 540.863 284.129 540.344C284.694 539.802 285.394 539.531 286.229 539.531C287.065 539.531 287.754 539.802 288.296 540.344C288.861 540.863 289.143 541.518 289.143 542.309C289.143 543.099 288.861 543.765 288.296 544.307C287.754 544.827 287.065 545.087 286.229 545.087ZM288.567 547.323V566.091H283.824V547.323H288.567ZM300.096 566.396C298.561 566.396 297.183 566.125 295.963 565.583C294.744 565.018 293.773 564.262 293.05 563.313C292.35 562.364 291.966 561.314 291.898 560.162H296.675C296.765 560.885 297.115 561.484 297.725 561.958C298.357 562.432 299.137 562.669 300.063 562.669C300.966 562.669 301.666 562.489 302.163 562.127C302.683 561.766 302.942 561.303 302.942 560.738C302.942 560.128 302.626 559.677 301.994 559.383C301.384 559.067 300.401 558.728 299.046 558.367C297.646 558.028 296.494 557.678 295.591 557.317C294.71 556.955 293.942 556.402 293.287 555.657C292.655 554.911 292.338 553.906 292.338 552.641C292.338 551.602 292.632 550.654 293.219 549.796C293.829 548.937 294.687 548.26 295.794 547.763C296.923 547.266 298.244 547.018 299.758 547.018C301.994 547.018 303.778 547.582 305.11 548.712C306.443 549.818 307.177 551.32 307.313 553.217H302.773C302.705 552.472 302.389 551.885 301.824 551.456C301.282 551.004 300.548 550.778 299.622 550.778C298.764 550.778 298.098 550.936 297.623 551.252C297.172 551.569 296.946 552.009 296.946 552.574C296.946 553.206 297.262 553.692 297.894 554.03C298.527 554.347 299.509 554.674 300.842 555.013C302.197 555.352 303.315 555.702 304.196 556.063C305.077 556.424 305.833 556.989 306.466 557.757C307.121 558.502 307.459 559.496 307.482 560.738C307.482 561.822 307.177 562.794 306.567 563.652C305.98 564.51 305.122 565.188 303.992 565.685C302.886 566.159 301.587 566.396 300.096 566.396ZM309.817 572.765V572.291C312.098 569.942 313.848 567.175 315.068 563.991C316.31 560.783 316.931 557.463 316.931 554.03C316.931 550.507 316.276 547.085 314.966 543.765C313.679 540.445 311.793 537.599 309.309 535.228V534.788H314.086C316.502 536.956 318.343 539.745 319.608 543.155C320.872 546.543 321.505 550.168 321.505 554.03C321.505 557.802 320.895 561.337 319.675 564.634C318.478 567.932 316.785 570.642 314.594 572.765H309.817ZM354.409 542.546V557.554C354.409 559.338 354.872 560.682 355.798 561.585C356.747 562.489 358.057 562.94 359.728 562.94C361.422 562.94 362.732 562.489 363.658 561.585C364.607 560.682 365.081 559.338 365.081 557.554V542.546H368.943V557.486C368.943 559.406 368.525 561.032 367.69 562.364C366.854 563.697 365.736 564.691 364.336 565.346C362.935 566.001 361.388 566.328 359.694 566.328C358.001 566.328 356.453 566.001 355.053 565.346C353.675 564.691 352.58 563.697 351.767 562.364C350.954 561.032 350.547 559.406 350.547 557.486V542.546H354.409ZM383.051 547.119C384.519 547.119 385.829 547.424 386.981 548.034C388.155 548.644 389.07 549.547 389.725 550.744C390.38 551.941 390.708 553.387 390.708 555.081V566.091H386.879V555.657C386.879 553.985 386.462 552.709 385.626 551.828C384.79 550.925 383.65 550.473 382.204 550.473C380.759 550.473 379.607 550.925 378.749 551.828C377.913 552.709 377.495 553.985 377.495 555.657V566.091H373.633V547.424H377.495V549.558C378.128 548.791 378.929 548.192 379.9 547.763C380.894 547.334 381.944 547.119 383.051 547.119ZM412.404 556.3C412.404 557 412.359 557.633 412.268 558.197H398.005C398.118 559.688 398.672 560.885 399.666 561.789C400.659 562.692 401.879 563.144 403.324 563.144C405.402 563.144 406.87 562.274 407.729 560.535H411.896C411.331 562.252 410.303 563.663 408.813 564.77C407.345 565.854 405.515 566.396 403.324 566.396C401.54 566.396 399.937 566.001 398.514 565.21C397.113 564.397 396.007 563.268 395.194 561.822C394.403 560.354 394.008 558.66 394.008 556.741C394.008 554.821 394.392 553.138 395.16 551.693C395.95 550.225 397.046 549.095 398.446 548.305C399.869 547.514 401.495 547.119 403.324 547.119C405.086 547.119 406.656 547.503 408.033 548.271C409.411 549.039 410.484 550.123 411.252 551.523C412.02 552.901 412.404 554.493 412.404 556.3ZM408.372 555.081C408.35 553.658 407.841 552.517 406.848 551.659C405.854 550.801 404.623 550.372 403.155 550.372C401.822 550.372 400.682 550.801 399.733 551.659C398.785 552.495 398.22 553.635 398.039 555.081H408.372ZM437.816 556.673C437.816 554.798 438.2 553.138 438.968 551.693C439.758 550.247 440.82 549.129 442.152 548.339C443.507 547.526 444.998 547.119 446.624 547.119C448.092 547.119 449.368 547.413 450.452 548C451.559 548.565 452.44 549.276 453.095 550.134V547.424H456.991V566.091H453.095V563.313C452.44 564.194 451.548 564.928 450.418 565.515C449.289 566.102 448.002 566.396 446.556 566.396C444.953 566.396 443.485 565.989 442.152 565.176C440.82 564.341 439.758 563.189 438.968 561.721C438.2 560.23 437.816 558.548 437.816 556.673ZM453.095 556.741C453.095 555.453 452.824 554.335 452.282 553.387C451.762 552.438 451.073 551.715 450.215 551.219C449.357 550.722 448.431 550.473 447.437 550.473C446.443 550.473 445.517 550.722 444.659 551.219C443.801 551.693 443.101 552.404 442.559 553.353C442.039 554.279 441.779 555.386 441.779 556.673C441.779 557.96 442.039 559.09 442.559 560.061C443.101 561.032 443.801 561.777 444.659 562.297C445.54 562.794 446.466 563.042 447.437 563.042C448.431 563.042 449.357 562.794 450.215 562.297C451.073 561.8 451.762 561.077 452.282 560.128C452.824 559.157 453.095 558.028 453.095 556.741ZM465.587 550.168C466.242 549.31 467.134 548.587 468.263 548C469.392 547.413 470.669 547.119 472.091 547.119C473.718 547.119 475.197 547.526 476.53 548.339C477.885 549.129 478.946 550.247 479.714 551.693C480.482 553.138 480.866 554.798 480.866 556.673C480.866 558.548 480.482 560.23 479.714 561.721C478.946 563.189 477.885 564.341 476.53 565.176C475.197 565.989 473.718 566.396 472.091 566.396C470.669 566.396 469.404 566.114 468.297 565.549C467.19 564.962 466.287 564.239 465.587 563.381V574.967H461.725V547.424H465.587V550.168ZM476.936 556.673C476.936 555.386 476.665 554.279 476.123 553.353C475.603 552.404 474.903 551.693 474.023 551.219C473.164 550.722 472.238 550.473 471.244 550.473C470.273 550.473 469.347 550.722 468.466 551.219C467.608 551.715 466.908 552.438 466.366 553.387C465.847 554.335 465.587 555.453 465.587 556.741C465.587 558.028 465.847 559.157 466.366 560.128C466.908 561.077 467.608 561.8 468.466 562.297C469.347 562.794 470.273 563.042 471.244 563.042C472.238 563.042 473.164 562.794 474.023 562.297C474.903 561.777 475.603 561.032 476.123 560.061C476.665 559.09 476.936 557.96 476.936 556.673ZM488.209 550.168C488.863 549.31 489.756 548.587 490.885 548C492.014 547.413 493.29 547.119 494.713 547.119C496.339 547.119 497.819 547.526 499.151 548.339C500.506 549.129 501.568 550.247 502.336 551.693C503.104 553.138 503.488 554.798 503.488 556.673C503.488 558.548 503.104 560.23 502.336 561.721C501.568 563.189 500.506 564.341 499.151 565.176C497.819 565.989 496.339 566.396 494.713 566.396C493.29 566.396 492.025 566.114 490.919 565.549C489.812 564.962 488.909 564.239 488.209 563.381V574.967H484.346V547.424H488.209V550.168ZM499.558 556.673C499.558 555.386 499.287 554.279 498.745 553.353C498.225 552.404 497.525 551.693 496.644 551.219C495.786 550.722 494.86 550.473 493.866 550.473C492.895 550.473 491.969 550.722 491.088 551.219C490.23 551.715 489.53 552.438 488.988 553.387C488.468 554.335 488.209 555.453 488.209 556.741C488.209 558.028 488.468 559.157 488.988 560.128C489.53 561.077 490.23 561.8 491.088 562.297C491.969 562.794 492.895 563.042 493.866 563.042C494.86 563.042 495.786 562.794 496.644 562.297C497.525 561.777 498.225 561.032 498.745 560.061C499.287 559.09 499.558 557.96 499.558 556.673ZM510.83 541.021V566.091H506.968V541.021H510.83ZM517.527 544.951C516.827 544.951 516.24 544.714 515.765 544.24C515.291 543.765 515.054 543.178 515.054 542.478C515.054 541.778 515.291 541.191 515.765 540.716C516.24 540.242 516.827 540.005 517.527 540.005C518.204 540.005 518.78 540.242 519.255 540.716C519.729 541.191 519.966 541.778 519.966 542.478C519.966 543.178 519.729 543.765 519.255 544.24C518.78 544.714 518.204 544.951 517.527 544.951ZM519.424 547.424V566.091H515.562V547.424H519.424ZM522.869 556.741C522.869 554.821 523.253 553.138 524.02 551.693C524.811 550.225 525.895 549.095 527.273 548.305C528.65 547.514 530.231 547.119 532.016 547.119C534.274 547.119 536.138 547.661 537.606 548.745C539.096 549.807 540.101 551.331 540.621 553.319H536.454C536.115 552.393 535.573 551.67 534.828 551.151C534.082 550.631 533.145 550.372 532.016 550.372C530.435 550.372 529.17 550.936 528.221 552.065C527.295 553.172 526.832 554.731 526.832 556.741C526.832 558.751 527.295 560.32 528.221 561.45C529.17 562.579 530.435 563.144 532.016 563.144C534.252 563.144 535.731 562.161 536.454 560.196H540.621C540.079 562.093 539.062 563.607 537.572 564.736C536.081 565.843 534.229 566.396 532.016 566.396C530.231 566.396 528.65 566.001 527.273 565.21C525.895 564.397 524.811 563.268 524.02 561.822C523.253 560.354 522.869 558.66 522.869 556.741ZM542.844 556.673C542.844 554.798 543.227 553.138 543.995 551.693C544.786 550.247 545.847 549.129 547.18 548.339C548.535 547.526 550.026 547.119 551.652 547.119C553.12 547.119 554.396 547.413 555.48 548C556.587 548.565 557.468 549.276 558.123 550.134V547.424H562.019V566.091H558.123V563.313C557.468 564.194 556.576 564.928 555.446 565.515C554.317 566.102 553.03 566.396 551.584 566.396C549.981 566.396 548.512 565.989 547.18 565.176C545.847 564.341 544.786 563.189 543.995 561.721C543.227 560.23 542.844 558.548 542.844 556.673ZM558.123 556.741C558.123 555.453 557.852 554.335 557.31 553.387C556.79 552.438 556.101 551.715 555.243 551.219C554.385 550.722 553.459 550.473 552.465 550.473C551.471 550.473 550.545 550.722 549.687 551.219C548.829 551.693 548.129 552.404 547.586 553.353C547.067 554.279 546.807 555.386 546.807 556.673C546.807 557.96 547.067 559.09 547.586 560.061C548.129 561.032 548.829 561.777 549.687 562.297C550.568 562.794 551.494 563.042 552.465 563.042C553.459 563.042 554.385 562.794 555.243 562.297C556.101 561.8 556.79 561.077 557.31 560.128C557.852 559.157 558.123 558.028 558.123 556.741ZM571.258 550.575V560.908C571.258 561.608 571.416 562.116 571.733 562.432C572.071 562.726 572.636 562.873 573.427 562.873H575.798V566.091H572.749C571.01 566.091 569.677 565.685 568.751 564.871C567.825 564.058 567.362 562.737 567.362 560.908V550.575H565.16V547.424H567.362V542.783H571.258V547.424H575.798V550.575H571.258ZM580.984 544.951C580.284 544.951 579.696 544.714 579.222 544.24C578.748 543.765 578.511 543.178 578.511 542.478C578.511 541.778 578.748 541.191 579.222 540.716C579.696 540.242 580.284 540.005 580.984 540.005C581.661 540.005 582.237 540.242 582.712 540.716C583.186 541.191 583.423 541.778 583.423 542.478C583.423 543.178 583.186 543.765 582.712 544.24C582.237 544.714 581.661 544.951 580.984 544.951ZM582.881 547.424V566.091H579.019V547.424H582.881ZM595.71 566.396C593.948 566.396 592.356 566.001 590.933 565.21C589.51 564.397 588.392 563.268 587.579 561.822C586.766 560.354 586.359 558.66 586.359 556.741C586.359 554.843 586.777 553.161 587.613 551.693C588.448 550.225 589.589 549.095 591.035 548.305C592.48 547.514 594.095 547.119 595.879 547.119C597.663 547.119 599.278 547.514 600.724 548.305C602.169 549.095 603.31 550.225 604.145 551.693C604.981 553.161 605.399 554.843 605.399 556.741C605.399 558.638 604.97 560.32 604.112 561.789C603.253 563.257 602.079 564.397 600.588 565.21C599.12 566.001 597.494 566.396 595.71 566.396ZM595.71 563.042C596.703 563.042 597.629 562.805 598.488 562.331C599.369 561.856 600.08 561.145 600.622 560.196C601.164 559.248 601.435 558.096 601.435 556.741C601.435 555.386 601.175 554.245 600.656 553.319C600.136 552.37 599.448 551.659 598.589 551.185C597.731 550.71 596.805 550.473 595.811 550.473C594.818 550.473 593.892 550.71 593.033 551.185C592.198 551.659 591.531 552.37 591.035 553.319C590.538 554.245 590.289 555.386 590.289 556.741C590.289 558.751 590.797 560.309 591.814 561.416C592.853 562.5 594.151 563.042 595.71 563.042ZM618.296 547.119C619.764 547.119 621.074 547.424 622.226 548.034C623.401 548.644 624.315 549.547 624.97 550.744C625.625 551.941 625.953 553.387 625.953 555.081V566.091H622.124V555.657C622.124 553.985 621.707 552.709 620.871 551.828C620.035 550.925 618.895 550.473 617.449 550.473C616.004 550.473 614.852 550.925 613.994 551.828C613.158 552.709 612.74 553.985 612.74 555.657V566.091H608.878V547.424H612.74V549.558C613.373 548.791 614.174 548.192 615.146 547.763C616.139 547.334 617.189 547.119 618.296 547.119ZM652.49 556.673C652.49 554.798 652.874 553.138 653.642 551.693C654.433 550.247 655.494 549.129 656.827 548.339C658.182 547.526 659.684 547.119 661.333 547.119C662.778 547.119 664.054 547.413 665.161 548C666.29 548.587 667.16 549.299 667.769 550.134V547.424H671.665V574.967H667.769V563.381C667.16 564.216 666.279 564.928 665.127 565.515C663.975 566.102 662.665 566.396 661.197 566.396C659.593 566.396 658.125 565.989 656.793 565.176C655.483 564.341 654.433 563.189 653.642 561.721C652.874 560.23 652.49 558.548 652.49 556.673ZM667.769 556.741C667.769 555.453 667.498 554.335 666.956 553.387C666.437 552.438 665.748 551.715 664.89 551.219C664.031 550.722 663.105 550.473 662.112 550.473C661.118 550.473 660.192 550.722 659.334 551.219C658.475 551.693 657.775 552.404 657.233 553.353C656.714 554.279 656.454 555.386 656.454 556.673C656.454 557.96 656.714 559.09 657.233 560.061C657.775 561.032 658.475 561.777 659.334 562.297C660.215 562.794 661.141 563.042 662.112 563.042C663.105 563.042 664.031 562.794 664.89 562.297C665.748 561.8 666.437 561.077 666.956 560.128C667.498 559.157 667.769 558.028 667.769 556.741ZM693.305 547.424V566.091H689.442V563.889C688.833 564.657 688.031 565.267 687.037 565.718C686.066 566.148 685.027 566.362 683.92 566.362C682.452 566.362 681.131 566.057 679.957 565.447C678.805 564.838 677.89 563.934 677.212 562.737C676.557 561.54 676.23 560.095 676.23 558.401V547.424H680.058V557.825C680.058 559.496 680.476 560.783 681.312 561.687C682.147 562.568 683.288 563.008 684.733 563.008C686.179 563.008 687.319 562.568 688.155 561.687C689.013 560.783 689.442 559.496 689.442 557.825V547.424H693.305ZM700.026 544.951C699.326 544.951 698.739 544.714 698.265 544.24C697.79 543.765 697.553 543.178 697.553 542.478C697.553 541.778 697.79 541.191 698.265 540.716C698.739 540.242 699.326 540.005 700.026 540.005C700.704 540.005 701.28 540.242 701.754 540.716C702.229 541.191 702.466 541.778 702.466 542.478C702.466 543.178 702.229 543.765 701.754 544.24C701.28 544.714 700.704 544.951 700.026 544.951ZM701.924 547.424V566.091H698.061V547.424H701.924ZM737.99 566.396C736.228 566.396 734.636 566.001 733.213 565.21C731.79 564.397 730.672 563.268 729.859 561.822C729.046 560.354 728.639 558.66 728.639 556.741C728.639 554.843 729.057 553.161 729.893 551.693C730.729 550.225 731.869 549.095 733.315 548.305C734.76 547.514 736.375 547.119 738.159 547.119C739.943 547.119 741.558 547.514 743.004 548.305C744.449 549.095 745.59 550.225 746.425 551.693C747.261 553.161 747.679 554.843 747.679 556.741C747.679 558.638 747.25 560.32 746.392 561.789C745.533 563.257 744.359 564.397 742.868 565.21C741.4 566.001 739.774 566.396 737.99 566.396ZM737.99 563.042C738.984 563.042 739.91 562.805 740.768 562.331C741.649 561.856 742.36 561.145 742.902 560.196C743.444 559.248 743.715 558.096 743.715 556.741C743.715 555.386 743.455 554.245 742.936 553.319C742.417 552.37 741.728 551.659 740.869 551.185C740.011 550.71 739.085 550.473 738.091 550.473C737.098 550.473 736.172 550.71 735.313 551.185C734.478 551.659 733.811 552.37 733.315 553.319C732.818 554.245 732.569 555.386 732.569 556.741C732.569 558.751 733.077 560.309 734.094 561.416C735.133 562.5 736.431 563.042 737.99 563.042ZM758.984 550.575H755.528V566.091H751.632V550.575H749.43V547.424H751.632V546.103C751.632 543.957 752.197 542.399 753.326 541.428C754.478 540.434 756.274 539.937 758.713 539.937V543.155C757.538 543.155 756.714 543.381 756.24 543.833C755.765 544.262 755.528 545.019 755.528 546.103V547.424H758.984V550.575ZM769.894 550.575H766.438V566.091H762.542V550.575H760.34V547.424H762.542V546.103C762.542 543.957 763.107 542.399 764.236 541.428C765.388 540.434 767.184 539.937 769.623 539.937V543.155C768.448 543.155 767.624 543.381 767.15 543.833C766.675 544.262 766.438 545.019 766.438 546.103V547.424H769.894V550.575ZM776.84 550.134C777.405 549.186 778.15 548.452 779.076 547.932C780.024 547.39 781.142 547.119 782.43 547.119V551.117H781.447C779.934 551.117 778.782 551.501 777.992 552.269C777.224 553.037 776.84 554.369 776.84 556.266V566.091H772.978V547.424H776.84V550.134ZM802.75 556.3C802.75 557 802.704 557.633 802.614 558.197H788.351C788.464 559.688 789.018 560.885 790.011 561.789C791.005 562.692 792.225 563.144 793.67 563.144C795.748 563.144 797.216 562.274 798.074 560.535H802.241C801.677 562.252 800.649 563.663 799.159 564.77C797.69 565.854 795.861 566.396 793.67 566.396C791.886 566.396 790.282 566.001 788.86 565.21C787.459 564.397 786.353 563.268 785.539 561.822C784.749 560.354 784.354 558.66 784.354 556.741C784.354 554.821 784.738 553.138 785.506 551.693C786.296 550.225 787.391 549.095 788.792 548.305C790.215 547.514 791.841 547.119 793.67 547.119C795.432 547.119 797.002 547.503 798.379 548.271C799.757 549.039 800.83 550.123 801.598 551.523C802.366 552.901 802.75 554.493 802.75 556.3ZM798.718 555.081C798.696 553.658 798.187 552.517 797.194 551.659C796.2 550.801 794.969 550.372 793.501 550.372C792.168 550.372 791.028 550.801 790.079 551.659C789.131 552.495 788.566 553.635 788.385 555.081H798.718ZM828.162 556.673C828.162 554.798 828.545 553.138 829.313 551.693C830.104 550.247 831.165 549.129 832.498 548.339C833.853 547.526 835.344 547.119 836.97 547.119C838.438 547.119 839.714 547.413 840.798 548C841.905 548.565 842.786 549.276 843.441 550.134V547.424H847.337V566.091H843.441V563.313C842.786 564.194 841.893 564.928 840.764 565.515C839.635 566.102 838.348 566.396 836.902 566.396C835.299 566.396 833.83 565.989 832.498 565.176C831.165 564.341 830.104 563.189 829.313 561.721C828.545 560.23 828.162 558.548 828.162 556.673ZM843.441 556.741C843.441 555.453 843.17 554.335 842.628 553.387C842.108 552.438 841.419 551.715 840.561 551.219C839.703 550.722 838.777 550.473 837.783 550.473C836.789 550.473 835.863 550.722 835.005 551.219C834.147 551.693 833.447 552.404 832.904 553.353C832.385 554.279 832.125 555.386 832.125 556.673C832.125 557.96 832.385 559.09 832.904 560.061C833.447 561.032 834.147 561.777 835.005 562.297C835.886 562.794 836.812 563.042 837.783 563.042C838.777 563.042 839.703 562.794 840.561 562.297C841.419 561.8 842.108 561.077 842.628 560.128C843.17 559.157 843.441 558.028 843.441 556.741ZM841.882 543.257V546.103L834.395 542.41V539.124L841.882 543.257ZM148.308 606.741C148.308 604.821 148.692 603.138 149.46 601.693C150.251 600.225 151.335 599.095 152.712 598.305C154.09 597.514 155.671 597.119 157.455 597.119C159.714 597.119 161.577 597.661 163.045 598.745C164.536 599.807 165.541 601.331 166.06 603.319H161.893C161.555 602.393 161.013 601.67 160.267 601.151C159.522 600.631 158.585 600.372 157.455 600.372C155.874 600.372 154.61 600.936 153.661 602.065C152.735 603.172 152.272 604.731 152.272 606.741C152.272 608.751 152.735 610.32 153.661 611.45C154.61 612.579 155.874 613.144 157.455 613.144C159.691 613.144 161.171 612.161 161.893 610.196H166.06C165.518 612.093 164.502 613.607 163.011 614.736C161.521 615.843 159.669 616.396 157.455 616.396C155.671 616.396 154.09 616.001 152.712 615.21C151.335 614.397 150.251 613.268 149.46 611.822C148.692 610.354 148.308 608.66 148.308 606.741ZM179.226 597.119C180.649 597.119 181.913 597.424 183.02 598.034C184.149 598.644 185.03 599.547 185.663 600.744C186.318 601.941 186.645 603.387 186.645 605.081V616.091H182.817V605.657C182.817 603.985 182.399 602.709 181.563 601.828C180.728 600.925 179.587 600.473 178.142 600.473C176.696 600.473 175.544 600.925 174.686 601.828C173.85 602.709 173.433 603.985 173.433 605.657V616.091H169.57V591.021H173.433V599.592C174.088 598.802 174.912 598.192 175.906 597.763C176.922 597.334 178.029 597.119 179.226 597.119ZM189.945 606.673C189.945 604.798 190.329 603.138 191.097 601.693C191.888 600.247 192.949 599.129 194.282 598.339C195.637 597.526 197.128 597.119 198.754 597.119C200.222 597.119 201.498 597.413 202.582 598C203.689 598.565 204.569 599.276 205.224 600.134V597.424H209.12V616.091H205.224V613.313C204.569 614.194 203.677 614.928 202.548 615.515C201.419 616.102 200.131 616.396 198.686 616.396C197.082 616.396 195.614 615.989 194.282 615.176C192.949 614.341 191.888 613.189 191.097 611.721C190.329 610.23 189.945 608.548 189.945 606.673ZM205.224 606.741C205.224 605.453 204.953 604.335 204.411 603.387C203.892 602.438 203.203 601.715 202.345 601.219C201.487 600.722 200.561 600.473 199.567 600.473C198.573 600.473 197.647 600.722 196.789 601.219C195.93 601.693 195.23 602.404 194.688 603.353C194.169 604.279 193.909 605.386 193.909 606.673C193.909 607.96 194.169 609.09 194.688 610.061C195.23 611.032 195.93 611.777 196.789 612.297C197.67 612.794 198.596 613.042 199.567 613.042C200.561 613.042 201.487 612.794 202.345 612.297C203.203 611.8 203.892 611.077 204.411 610.128C204.953 609.157 205.224 608.028 205.224 606.741ZM212.567 606.673C212.567 604.798 212.951 603.138 213.719 601.693C214.509 600.247 215.571 599.129 216.903 598.339C218.259 597.526 219.76 597.119 221.409 597.119C222.855 597.119 224.131 597.413 225.237 598C226.367 598.587 227.236 599.299 227.846 600.134V597.424H231.742V624.967H227.846V613.381C227.236 614.216 226.355 614.928 225.204 615.515C224.052 616.102 222.742 616.396 221.274 616.396C219.67 616.396 218.202 615.989 216.87 615.176C215.56 614.341 214.509 613.189 213.719 611.721C212.951 610.23 212.567 608.548 212.567 606.673ZM227.846 606.741C227.846 605.453 227.575 604.335 227.033 603.387C226.514 602.438 225.825 601.715 224.966 601.219C224.108 600.722 223.182 600.473 222.188 600.473C221.195 600.473 220.269 600.722 219.41 601.219C218.552 601.693 217.852 602.404 217.31 603.353C216.79 604.279 216.531 605.386 216.531 606.673C216.531 607.96 216.79 609.09 217.31 610.061C217.852 611.032 218.552 611.777 219.41 612.297C220.291 612.794 221.217 613.042 222.188 613.042C223.182 613.042 224.108 612.794 224.966 612.297C225.825 611.8 226.514 611.077 227.033 610.128C227.575 609.157 227.846 608.028 227.846 606.741ZM253.381 597.424V616.091H249.519V613.889C248.909 614.657 248.108 615.267 247.114 615.718C246.143 616.148 245.104 616.362 243.997 616.362C242.529 616.362 241.208 616.057 240.033 615.447C238.881 614.838 237.967 613.934 237.289 612.737C236.634 611.54 236.307 610.095 236.307 608.401V597.424H240.135V607.825C240.135 609.496 240.553 610.783 241.388 611.687C242.224 612.568 243.365 613.008 244.81 613.008C246.256 613.008 247.396 612.568 248.232 611.687C249.09 610.783 249.519 609.496 249.519 607.825V597.424H253.381ZM275.247 606.3C275.247 607 275.202 607.633 275.111 608.197H260.849C260.961 609.688 261.515 610.885 262.509 611.789C263.502 612.692 264.722 613.144 266.167 613.144C268.245 613.144 269.713 612.274 270.572 610.535H274.739C274.174 612.252 273.146 613.663 271.656 614.77C270.188 615.854 268.358 616.396 266.167 616.396C264.383 616.396 262.78 616.001 261.357 615.21C259.956 614.397 258.85 613.268 258.037 611.822C257.246 610.354 256.851 608.66 256.851 606.741C256.851 604.821 257.235 603.138 258.003 601.693C258.793 600.225 259.889 599.095 261.289 598.305C262.712 597.514 264.338 597.119 266.167 597.119C267.929 597.119 269.499 597.503 270.877 598.271C272.254 599.039 273.327 600.123 274.095 601.523C274.863 602.901 275.247 604.493 275.247 606.3ZM271.215 605.081C271.193 603.658 270.685 602.517 269.691 601.659C268.697 600.801 267.466 600.372 265.998 600.372C264.665 600.372 263.525 600.801 262.576 601.659C261.628 602.495 261.063 603.635 260.882 605.081H271.215ZM305.672 606.3C305.672 607 305.627 607.633 305.536 608.197H291.274C291.387 609.688 291.94 610.885 292.934 611.789C293.927 612.692 295.147 613.144 296.593 613.144C298.67 613.144 300.138 612.274 300.997 610.535H305.164C304.599 612.252 303.571 613.663 302.081 614.77C300.613 615.854 298.783 616.396 296.593 616.396C294.808 616.396 293.205 616.001 291.782 615.21C290.382 614.397 289.275 613.268 288.462 611.822C287.671 610.354 287.276 608.66 287.276 606.741C287.276 604.821 287.66 603.138 288.428 601.693C289.218 600.225 290.314 599.095 291.714 598.305C293.137 597.514 294.763 597.119 296.593 597.119C298.354 597.119 299.924 597.503 301.302 598.271C302.679 599.039 303.752 600.123 304.52 601.523C305.288 602.901 305.672 604.493 305.672 606.3ZM301.64 605.081C301.618 603.658 301.11 602.517 300.116 601.659C299.122 600.801 297.891 600.372 296.423 600.372C295.091 600.372 293.95 600.801 293.001 601.659C292.053 602.495 291.488 603.635 291.308 605.081H301.64ZM299.98 592.41L292.493 596.103V593.257L299.98 589.124V592.41ZM313.64 600.575V610.908C313.64 611.608 313.798 612.116 314.114 612.432C314.453 612.726 315.017 612.873 315.808 612.873H318.179V616.091H315.13C313.391 616.091 312.059 615.685 311.133 614.871C310.207 614.058 309.744 612.737 309.744 610.908V600.575H307.542V597.424H309.744V592.783H313.64V597.424H318.179V600.575H313.64ZM338.305 597.424V616.091H334.443V613.889C333.833 614.657 333.032 615.267 332.038 615.718C331.067 616.148 330.028 616.362 328.921 616.362C327.453 616.362 326.132 616.057 324.957 615.447C323.805 614.838 322.891 613.934 322.213 612.737C321.558 611.54 321.231 610.095 321.231 608.401V597.424H325.059V607.825C325.059 609.496 325.477 610.783 326.312 611.687C327.148 612.568 328.289 613.008 329.734 613.008C331.18 613.008 332.32 612.568 333.156 611.687C334.014 610.783 334.443 609.496 334.443 607.825V597.424H338.305ZM341.775 606.673C341.775 604.798 342.159 603.138 342.927 601.693C343.717 600.247 344.779 599.129 346.111 598.339C347.467 597.526 348.968 597.119 350.617 597.119C351.837 597.119 353.034 597.39 354.208 597.932C355.405 598.452 356.354 599.152 357.054 600.033V591.021H360.95V616.091H357.054V613.279C356.422 614.183 355.541 614.928 354.412 615.515C353.305 616.102 352.029 616.396 350.583 616.396C348.957 616.396 347.467 615.989 346.111 615.176C344.779 614.341 343.717 613.189 342.927 611.721C342.159 610.23 341.775 608.548 341.775 606.673ZM357.054 606.741C357.054 605.453 356.783 604.335 356.241 603.387C355.722 602.438 355.033 601.715 354.174 601.219C353.316 600.722 352.39 600.473 351.396 600.473C350.403 600.473 349.477 600.722 348.618 601.219C347.76 601.693 347.06 602.404 346.518 603.353C345.998 604.279 345.739 605.386 345.739 606.673C345.739 607.96 345.998 609.09 346.518 610.061C347.06 611.032 347.76 611.777 348.618 612.297C349.499 612.794 350.425 613.042 351.396 613.042C352.39 613.042 353.316 612.794 354.174 612.297C355.033 611.8 355.722 611.077 356.241 610.128C356.783 609.157 357.054 608.028 357.054 606.741ZM367.649 594.951C366.949 594.951 366.362 594.714 365.887 594.24C365.413 593.765 365.176 593.178 365.176 592.478C365.176 591.778 365.413 591.191 365.887 590.716C366.362 590.242 366.949 590.005 367.649 590.005C368.327 590.005 368.902 590.242 369.377 590.716C369.851 591.191 370.088 591.778 370.088 592.478C370.088 593.178 369.851 593.765 369.377 594.24C368.902 594.714 368.327 594.951 367.649 594.951ZM369.546 597.424V616.091H365.684V597.424H369.546ZM372.991 606.673C372.991 604.798 373.375 603.138 374.142 601.693C374.933 600.247 375.994 599.129 377.327 598.339C378.682 597.526 380.173 597.119 381.799 597.119C383.267 597.119 384.543 597.413 385.627 598C386.734 598.565 387.615 599.276 388.27 600.134V597.424H392.166V616.091H388.27V613.313C387.615 614.194 386.723 614.928 385.593 615.515C384.464 616.102 383.177 616.396 381.731 616.396C380.128 616.396 378.66 615.989 377.327 615.176C375.994 614.341 374.933 613.189 374.142 611.721C373.375 610.23 372.991 608.548 372.991 606.673ZM388.27 606.741C388.27 605.453 387.999 604.335 387.457 603.387C386.937 602.438 386.248 601.715 385.39 601.219C384.532 600.722 383.606 600.473 382.612 600.473C381.618 600.473 380.692 600.722 379.834 601.219C378.976 601.693 378.276 602.404 377.734 603.353C377.214 604.279 376.954 605.386 376.954 606.673C376.954 607.96 377.214 609.09 377.734 610.061C378.276 611.032 378.976 611.777 379.834 612.297C380.715 612.794 381.641 613.042 382.612 613.042C383.606 613.042 384.532 612.794 385.39 612.297C386.248 611.8 386.937 611.077 387.457 610.128C387.999 609.157 388.27 608.028 388.27 606.741ZM406.318 597.119C407.786 597.119 409.096 597.424 410.248 598.034C411.422 598.644 412.337 599.547 412.992 600.744C413.647 601.941 413.974 603.387 413.974 605.081V616.091H410.146V605.657C410.146 603.985 409.728 602.709 408.893 601.828C408.057 600.925 406.916 600.473 405.471 600.473C404.025 600.473 402.874 600.925 402.015 601.828C401.18 602.709 400.762 603.985 400.762 605.657V616.091H396.9V597.424H400.762V599.558C401.394 598.791 402.196 598.192 403.167 597.763C404.161 597.334 405.211 597.119 406.318 597.119ZM423.068 600.575V610.908C423.068 611.608 423.226 612.116 423.542 612.432C423.881 612.726 424.445 612.873 425.236 612.873H427.607V616.091H424.558C422.819 616.091 421.487 615.685 420.561 614.871C419.635 614.058 419.172 612.737 419.172 610.908V600.575H416.97V597.424H419.172V592.783H423.068V597.424H427.607V600.575H423.068ZM444.545 591.021V616.091H440.683V591.021H444.545ZM466.385 606.3C466.385 607 466.34 607.633 466.25 608.197H451.987C452.1 609.688 452.653 610.885 453.647 611.789C454.641 612.692 455.861 613.144 457.306 613.144C459.384 613.144 460.852 612.274 461.71 610.535H465.877C465.313 612.252 464.285 613.663 462.794 614.77C461.326 615.854 459.497 616.396 457.306 616.396C455.522 616.396 453.918 616.001 452.495 615.21C451.095 614.397 449.988 613.268 449.175 611.822C448.385 610.354 447.989 608.66 447.989 606.741C447.989 604.821 448.373 603.138 449.141 601.693C449.932 600.225 451.027 599.095 452.428 598.305C453.85 597.514 455.477 597.119 457.306 597.119C459.068 597.119 460.637 597.503 462.015 598.271C463.393 599.039 464.466 600.123 465.233 601.523C466.001 602.901 466.385 604.493 466.385 606.3ZM462.354 605.081C462.331 603.658 461.823 602.517 460.829 601.659C459.836 600.801 458.605 600.372 457.137 600.372C455.804 600.372 454.663 600.801 453.715 601.659C452.766 602.495 452.202 603.635 452.021 605.081H462.354ZM486.478 616.396C485.01 616.396 483.688 616.136 482.514 615.617C481.362 615.075 480.447 614.352 479.77 613.449C479.092 612.523 478.731 611.495 478.686 610.366H482.683C482.751 611.156 483.124 611.822 483.801 612.364C484.501 612.884 485.371 613.144 486.41 613.144C487.494 613.144 488.33 612.94 488.917 612.534C489.527 612.105 489.832 611.563 489.832 610.908C489.832 610.208 489.493 609.688 488.815 609.349C488.16 609.011 487.11 608.638 485.665 608.231C484.264 607.847 483.124 607.475 482.243 607.113C481.362 606.752 480.594 606.199 479.939 605.453C479.307 604.708 478.99 603.726 478.99 602.506C478.99 601.512 479.284 600.609 479.871 599.796C480.459 598.96 481.294 598.305 482.378 597.831C483.485 597.356 484.75 597.119 486.173 597.119C488.296 597.119 490.001 597.661 491.288 598.745C492.598 599.807 493.298 601.264 493.389 603.116H489.527C489.459 602.28 489.12 601.614 488.51 601.117C487.9 600.62 487.076 600.372 486.037 600.372C485.021 600.372 484.242 600.564 483.7 600.947C483.158 601.331 482.886 601.84 482.886 602.472C482.886 602.969 483.067 603.387 483.429 603.726C483.79 604.064 484.23 604.335 484.75 604.539C485.269 604.719 486.037 604.956 487.054 605.25C488.409 605.611 489.515 605.984 490.374 606.368C491.254 606.729 492.011 607.271 492.643 607.994C493.276 608.717 493.603 609.677 493.626 610.874C493.626 611.935 493.332 612.884 492.745 613.72C492.158 614.555 491.322 615.21 490.238 615.685C489.177 616.159 487.923 616.396 486.478 616.396ZM514.365 597.424V616.091H510.503V613.889C509.894 614.657 509.092 615.267 508.098 615.718C507.127 616.148 506.088 616.362 504.981 616.362C503.513 616.362 502.192 616.057 501.017 615.447C499.866 614.838 498.951 613.934 498.273 612.737C497.618 611.54 497.291 610.095 497.291 608.401V597.424H501.119V607.825C501.119 609.496 501.537 610.783 502.373 611.687C503.208 612.568 504.349 613.008 505.794 613.008C507.24 613.008 508.38 612.568 509.216 611.687C510.074 610.783 510.503 609.496 510.503 607.825V597.424H514.365ZM522.985 600.168C523.64 599.31 524.532 598.587 525.661 598C526.79 597.413 528.066 597.119 529.489 597.119C531.115 597.119 532.595 597.526 533.927 598.339C535.282 599.129 536.344 600.247 537.112 601.693C537.88 603.138 538.264 604.798 538.264 606.673C538.264 608.548 537.88 610.23 537.112 611.721C536.344 613.189 535.282 614.341 533.927 615.176C532.595 615.989 531.115 616.396 529.489 616.396C528.066 616.396 526.802 616.114 525.695 615.549C524.588 614.962 523.685 614.239 522.985 613.381V624.967H519.122V597.424H522.985V600.168ZM534.334 606.673C534.334 605.386 534.063 604.279 533.521 603.353C533.001 602.404 532.301 601.693 531.42 601.219C530.562 600.722 529.636 600.473 528.642 600.473C527.671 600.473 526.745 600.722 525.864 601.219C525.006 601.715 524.306 602.438 523.764 603.387C523.244 604.335 522.985 605.453 522.985 606.741C522.985 608.028 523.244 609.157 523.764 610.128C524.306 611.077 525.006 611.8 525.864 612.297C526.745 612.794 527.671 613.042 528.642 613.042C529.636 613.042 530.562 612.794 531.42 612.297C532.301 611.777 533.001 611.032 533.521 610.061C534.063 609.09 534.334 607.96 534.334 606.673ZM558.853 606.3C558.853 607 558.807 607.633 558.717 608.197H544.454C544.567 609.688 545.121 610.885 546.114 611.789C547.108 612.692 548.328 613.144 549.773 613.144C551.851 613.144 553.319 612.274 554.177 610.535H558.344C557.78 612.252 556.752 613.663 555.262 614.77C553.794 615.854 551.964 616.396 549.773 616.396C547.989 616.396 546.385 616.001 544.963 615.21C543.562 614.397 542.456 613.268 541.643 611.822C540.852 610.354 540.457 608.66 540.457 606.741C540.457 604.821 540.841 603.138 541.609 601.693C542.399 600.225 543.495 599.095 544.895 598.305C546.318 597.514 547.944 597.119 549.773 597.119C551.535 597.119 553.105 597.503 554.482 598.271C555.86 599.039 556.933 600.123 557.701 601.523C558.469 602.901 558.853 604.493 558.853 606.3ZM554.821 605.081C554.799 603.658 554.29 602.517 553.297 601.659C552.303 600.801 551.072 600.372 549.604 600.372C548.271 600.372 547.131 600.801 546.182 601.659C545.234 602.495 544.669 603.635 544.488 605.081H554.821ZM566.177 600.134C566.741 599.186 567.487 598.452 568.413 597.932C569.361 597.39 570.479 597.119 571.767 597.119V601.117H570.784C569.271 601.117 568.119 601.501 567.329 602.269C566.561 603.037 566.177 604.369 566.177 606.266V616.091H562.315V597.424H566.177V600.134ZM589.308 602.201V605.453H575.384V602.201H589.308ZM598.319 600.168C598.974 599.31 599.866 598.587 600.995 598C602.124 597.413 603.4 597.119 604.823 597.119C606.449 597.119 607.929 597.526 609.261 598.339C610.617 599.129 611.678 600.247 612.446 601.693C613.214 603.138 613.598 604.798 613.598 606.673C613.598 608.548 613.214 610.23 612.446 611.721C611.678 613.189 610.617 614.341 609.261 615.176C607.929 615.989 606.449 616.396 604.823 616.396C603.4 616.396 602.136 616.114 601.029 615.549C599.922 614.962 599.019 614.239 598.319 613.381V624.967H594.457V597.424H598.319V600.168ZM609.668 606.673C609.668 605.386 609.397 604.279 608.855 603.353C608.335 602.404 607.635 601.693 606.754 601.219C605.896 600.722 604.97 600.473 603.976 600.473C603.005 600.473 602.079 600.722 601.198 601.219C600.34 601.715 599.64 602.438 599.098 603.387C598.578 604.335 598.319 605.453 598.319 606.741C598.319 608.028 598.578 609.157 599.098 610.128C599.64 611.077 600.34 611.8 601.198 612.297C602.079 612.794 603.005 613.042 603.976 613.042C604.97 613.042 605.896 612.794 606.754 612.297C607.635 611.777 608.335 611.032 608.855 610.061C609.397 609.09 609.668 607.96 609.668 606.673ZM625.175 616.396C623.413 616.396 621.821 616.001 620.398 615.21C618.975 614.397 617.857 613.268 617.044 611.822C616.231 610.354 615.825 608.66 615.825 606.741C615.825 604.843 616.243 603.161 617.078 601.693C617.914 600.225 619.054 599.095 620.5 598.305C621.945 597.514 623.56 597.119 625.345 597.119C627.129 597.119 628.744 597.514 630.189 598.305C631.635 599.095 632.775 600.225 633.611 601.693C634.447 603.161 634.864 604.843 634.864 606.741C634.864 608.638 634.435 610.32 633.577 611.789C632.719 613.257 631.544 614.397 630.054 615.21C628.586 616.001 626.959 616.396 625.175 616.396ZM625.175 613.042C626.169 613.042 627.095 612.805 627.953 612.331C628.834 611.856 629.545 611.145 630.087 610.196C630.63 609.248 630.901 608.096 630.901 606.741C630.901 605.386 630.641 604.245 630.121 603.319C629.602 602.37 628.913 601.659 628.055 601.185C627.197 600.71 626.271 600.473 625.277 600.473C624.283 600.473 623.357 600.71 622.499 601.185C621.663 601.659 620.997 602.37 620.5 603.319C620.003 604.245 619.755 605.386 619.755 606.741C619.755 608.751 620.263 610.309 621.279 611.416C622.318 612.5 623.617 613.042 625.175 613.042ZM655.249 597.424V616.091H651.387V613.889C650.777 614.657 649.975 615.267 648.981 615.718C648.01 616.148 646.971 616.362 645.864 616.362C644.396 616.362 643.075 616.057 641.901 615.447C640.749 614.838 639.834 613.934 639.157 612.737C638.502 611.54 638.174 610.095 638.174 608.401V597.424H642.002V607.825C642.002 609.496 642.42 610.783 643.256 611.687C644.091 612.568 645.232 613.008 646.677 613.008C648.123 613.008 649.264 612.568 650.099 611.687C650.957 610.783 651.387 609.496 651.387 607.825V597.424H655.249ZM667.222 612.635L672.507 597.424H676.606L669.492 616.091H664.884L657.804 597.424H661.937L667.222 612.635ZM687.284 616.396C685.522 616.396 683.93 616.001 682.507 615.21C681.084 614.397 679.966 613.268 679.153 611.822C678.34 610.354 677.933 608.66 677.933 606.741C677.933 604.843 678.351 603.161 679.187 601.693C680.022 600.225 681.163 599.095 682.608 598.305C684.054 597.514 685.669 597.119 687.453 597.119C689.237 597.119 690.852 597.514 692.298 598.305C693.743 599.095 694.884 600.225 695.719 601.693C696.555 603.161 696.973 604.843 696.973 606.741C696.973 608.638 696.544 610.32 695.685 611.789C694.827 613.257 693.653 614.397 692.162 615.21C690.694 616.001 689.068 616.396 687.284 616.396ZM687.284 613.042C688.277 613.042 689.203 612.805 690.062 612.331C690.942 611.856 691.654 611.145 692.196 610.196C692.738 609.248 693.009 608.096 693.009 606.741C693.009 605.386 692.749 604.245 692.23 603.319C691.71 602.37 691.021 601.659 690.163 601.185C689.305 600.71 688.379 600.473 687.385 600.473C686.391 600.473 685.465 600.71 684.607 601.185C683.771 601.659 683.105 602.37 682.608 603.319C682.111 604.245 681.863 605.386 681.863 606.741C681.863 608.751 682.371 610.309 683.388 611.416C684.426 612.5 685.725 613.042 687.284 613.042ZM702.417 594.951C701.717 594.951 701.129 594.714 700.655 594.24C700.181 593.765 699.944 593.178 699.944 592.478C699.944 591.778 700.181 591.191 700.655 590.716C701.129 590.242 701.717 590.005 702.417 590.005C703.094 590.005 703.67 590.242 704.145 590.716C704.619 591.191 704.856 591.778 704.856 592.478C704.856 593.178 704.619 593.765 704.145 594.24C703.67 594.714 703.094 594.951 702.417 594.951ZM704.314 597.424V616.091H700.452V597.424H704.314ZM712.908 600.134C713.473 599.186 714.218 598.452 715.144 597.932C716.092 597.39 717.21 597.119 718.498 597.119V601.117H717.515C716.002 601.117 714.85 601.501 714.06 602.269C713.292 603.037 712.908 604.369 712.908 606.266V616.091H709.046V597.424H712.908V600.134ZM730.276 606.673C730.276 604.798 730.66 603.138 731.428 601.693C732.219 600.247 733.28 599.129 734.613 598.339C735.968 597.526 737.47 597.119 739.119 597.119C740.338 597.119 741.535 597.39 742.71 597.932C743.907 598.452 744.855 599.152 745.555 600.033V591.021H749.451V616.091H745.555V613.279C744.923 614.183 744.042 614.928 742.913 615.515C741.806 616.102 740.53 616.396 739.085 616.396C737.459 616.396 735.968 615.989 734.613 615.176C733.28 614.341 732.219 613.189 731.428 611.721C730.66 610.23 730.276 608.548 730.276 606.673ZM745.555 606.741C745.555 605.453 745.284 604.335 744.742 603.387C744.223 602.438 743.534 601.715 742.676 601.219C741.818 600.722 740.892 600.473 739.898 600.473C738.904 600.473 737.978 600.722 737.12 601.219C736.261 601.693 735.561 602.404 735.019 603.353C734.5 604.279 734.24 605.386 734.24 606.673C734.24 607.96 734.5 609.09 735.019 610.061C735.561 611.032 736.261 611.777 737.12 612.297C738.001 612.794 738.927 613.042 739.898 613.042C740.892 613.042 741.818 612.794 742.676 612.297C743.534 611.8 744.223 611.077 744.742 610.128C745.284 609.157 745.555 608.028 745.555 606.741ZM771.294 606.3C771.294 607 771.249 607.633 771.158 608.197H756.896C757.009 609.688 757.562 610.885 758.556 611.789C759.549 612.692 760.769 613.144 762.215 613.144C764.292 613.144 765.76 612.274 766.619 610.535H770.786C770.221 612.252 769.193 613.663 767.703 614.77C766.235 615.854 764.405 616.396 762.215 616.396C760.43 616.396 758.827 616.001 757.404 615.21C756.004 614.397 754.897 613.268 754.084 611.822C753.293 610.354 752.898 608.66 752.898 606.741C752.898 604.821 753.282 603.138 754.05 601.693C754.84 600.225 755.936 599.095 757.336 598.305C758.759 597.514 760.385 597.119 762.215 597.119C763.976 597.119 765.546 597.503 766.924 598.271C768.301 599.039 769.374 600.123 770.142 601.523C770.91 602.901 771.294 604.493 771.294 606.3ZM767.262 605.081C767.24 603.658 766.732 602.517 765.738 601.659C764.744 600.801 763.513 600.372 762.045 600.372C760.713 600.372 759.572 600.801 758.623 601.659C757.675 602.495 757.11 603.635 756.93 605.081H767.262ZM789.116 600.575V610.908C789.116 611.608 789.274 612.116 789.591 612.432C789.929 612.726 790.494 612.873 791.285 612.873H793.656V616.091H790.607C788.868 616.091 787.535 615.685 786.609 614.871C785.683 614.058 785.22 612.737 785.22 610.908V600.575H783.018V597.424H785.22V592.783H789.116V597.424H793.656V600.575H789.116ZM804.974 616.396C803.212 616.396 801.62 616.001 800.197 615.21C798.774 614.397 797.656 613.268 796.843 611.822C796.03 610.354 795.623 608.66 795.623 606.741C795.623 604.843 796.041 603.161 796.877 601.693C797.712 600.225 798.853 599.095 800.299 598.305C801.744 597.514 803.359 597.119 805.143 597.119C806.927 597.119 808.542 597.514 809.988 598.305C811.433 599.095 812.574 600.225 813.409 601.693C814.245 603.161 814.663 604.843 814.663 606.741C814.663 608.638 814.234 610.32 813.376 611.789C812.517 613.257 811.343 614.397 809.852 615.21C808.384 616.001 806.758 616.396 804.974 616.396ZM804.974 613.042C805.967 613.042 806.893 612.805 807.752 612.331C808.633 611.856 809.344 611.145 809.886 610.196C810.428 609.248 810.699 608.096 810.699 606.741C810.699 605.386 810.439 604.245 809.92 603.319C809.4 602.37 808.712 601.659 807.853 601.185C806.995 600.71 806.069 600.473 805.075 600.473C804.082 600.473 803.156 600.71 802.297 601.185C801.462 601.659 800.795 602.37 800.299 603.319C799.802 604.245 799.553 605.386 799.553 606.741C799.553 608.751 800.061 610.309 801.078 611.416C802.117 612.5 803.415 613.042 804.974 613.042ZM835.047 597.424V616.091H831.185V613.889C830.575 614.657 829.774 615.267 828.78 615.718C827.809 616.148 826.77 616.362 825.663 616.362C824.195 616.362 822.874 616.057 821.699 615.447C820.547 614.838 819.633 613.934 818.955 612.737C818.3 611.54 817.973 610.095 817.973 608.401V597.424H821.801V607.825C821.801 609.496 822.219 610.783 823.054 611.687C823.89 612.568 825.031 613.008 826.476 613.008C827.922 613.008 829.062 612.568 829.898 611.687C830.756 610.783 831.185 609.496 831.185 607.825V597.424H835.047ZM844.31 600.575V610.908C844.31 611.608 844.468 612.116 844.784 612.432C845.123 612.726 845.688 612.873 846.478 612.873H848.85V616.091H845.801C844.062 616.091 842.729 615.685 841.803 614.871C840.877 614.058 840.414 612.737 840.414 610.908V600.575H838.212V597.424H840.414V592.783H844.31V597.424H848.85V600.575H844.31ZM156.371 666.396C154.903 666.396 153.582 666.136 152.407 665.617C151.256 665.075 150.341 664.352 149.663 663.449C148.986 662.523 148.624 661.495 148.579 660.366H152.577C152.645 661.156 153.017 661.822 153.695 662.364C154.395 662.884 155.265 663.144 156.303 663.144C157.388 663.144 158.223 662.94 158.81 662.534C159.42 662.105 159.725 661.563 159.725 660.908C159.725 660.208 159.386 659.688 158.709 659.349C158.054 659.011 157.004 658.638 155.558 658.231C154.158 657.847 153.017 657.475 152.136 657.113C151.256 656.752 150.488 656.199 149.833 655.453C149.2 654.708 148.884 653.726 148.884 652.506C148.884 651.512 149.178 650.609 149.765 649.796C150.352 648.96 151.188 648.305 152.272 647.831C153.379 647.356 154.643 647.119 156.066 647.119C158.189 647.119 159.895 647.661 161.182 648.745C162.492 649.807 163.192 651.264 163.282 653.116H159.42C159.352 652.28 159.014 651.614 158.404 651.117C157.794 650.62 156.97 650.372 155.931 650.372C154.914 650.372 154.135 650.564 153.593 650.947C153.051 651.331 152.78 651.84 152.78 652.472C152.78 652.969 152.961 653.387 153.322 653.726C153.684 654.064 154.124 654.335 154.643 654.539C155.163 654.719 155.931 654.956 156.947 655.25C158.302 655.611 159.409 655.984 160.267 656.368C161.148 656.729 161.905 657.271 162.537 657.994C163.169 658.717 163.497 659.677 163.52 660.874C163.52 661.935 163.226 662.884 162.639 663.72C162.051 664.555 161.216 665.21 160.132 665.685C159.07 666.159 157.817 666.396 156.371 666.396ZM166.066 656.673C166.066 654.798 166.45 653.138 167.218 651.693C168.009 650.247 169.07 649.129 170.403 648.339C171.758 647.526 173.249 647.119 174.875 647.119C176.343 647.119 177.619 647.413 178.703 648C179.81 648.565 180.691 649.276 181.346 650.134V647.424H185.242V666.091H181.346V663.313C180.691 664.194 179.798 664.928 178.669 665.515C177.54 666.102 176.253 666.396 174.807 666.396C173.203 666.396 171.735 665.989 170.403 665.176C169.07 664.341 168.009 663.189 167.218 661.721C166.45 660.23 166.066 658.548 166.066 656.673ZM181.346 656.741C181.346 655.453 181.075 654.335 180.532 653.387C180.013 652.438 179.324 651.715 178.466 651.219C177.608 650.722 176.682 650.473 175.688 650.473C174.694 650.473 173.768 650.722 172.91 651.219C172.052 651.693 171.351 652.404 170.809 653.353C170.29 654.279 170.03 655.386 170.03 656.673C170.03 657.96 170.29 659.09 170.809 660.061C171.351 661.032 172.052 661.777 172.91 662.297C173.791 662.794 174.717 663.042 175.688 663.042C176.682 663.042 177.608 662.794 178.466 662.297C179.324 661.8 180.013 661.077 180.532 660.128C181.075 659.157 181.346 658.028 181.346 656.741ZM197.192 662.635L202.477 647.424H206.576L199.461 666.091H194.854L187.773 647.424H191.907L197.192 662.635ZM217.253 666.396C215.492 666.396 213.899 666.001 212.476 665.21C211.054 664.397 209.936 663.268 209.123 661.822C208.309 660.354 207.903 658.66 207.903 656.741C207.903 654.843 208.321 653.161 209.156 651.693C209.992 650.225 211.133 649.095 212.578 648.305C214.024 647.514 215.638 647.119 217.423 647.119C219.207 647.119 220.822 647.514 222.267 648.305C223.713 649.095 224.853 650.225 225.689 651.693C226.525 653.161 226.943 654.843 226.943 656.741C226.943 658.638 226.513 660.32 225.655 661.789C224.797 663.257 223.622 664.397 222.132 665.21C220.664 666.001 219.038 666.396 217.253 666.396ZM217.253 663.042C218.247 663.042 219.173 662.805 220.031 662.331C220.912 661.856 221.624 661.145 222.166 660.196C222.708 659.248 222.979 658.096 222.979 656.741C222.979 655.386 222.719 654.245 222.2 653.319C221.68 652.37 220.991 651.659 220.133 651.185C219.275 650.71 218.349 650.473 217.355 650.473C216.361 650.473 215.435 650.71 214.577 651.185C213.741 651.659 213.075 652.37 212.578 653.319C212.081 654.245 211.833 655.386 211.833 656.741C211.833 658.751 212.341 660.309 213.357 661.416C214.396 662.5 215.695 663.042 217.253 663.042ZM232.387 644.951C231.686 644.951 231.099 644.714 230.625 644.24C230.151 643.765 229.913 643.178 229.913 642.478C229.913 641.778 230.151 641.191 230.625 640.716C231.099 640.242 231.686 640.005 232.387 640.005C233.064 640.005 233.64 640.242 234.114 640.716C234.589 641.191 234.826 641.778 234.826 642.478C234.826 643.178 234.589 643.765 234.114 644.24C233.64 644.714 233.064 644.951 232.387 644.951ZM234.284 647.424V666.091H230.422V647.424H234.284ZM242.878 650.134C243.442 649.186 244.188 648.452 245.114 647.932C246.062 647.39 247.18 647.119 248.468 647.119V651.117H247.485C245.972 651.117 244.82 651.501 244.03 652.269C243.262 653.037 242.878 654.369 242.878 656.266V666.091H239.016V647.424H242.878V650.134ZM277.053 666.396C275.585 666.396 274.263 666.136 273.089 665.617C271.937 665.075 271.022 664.352 270.345 663.449C269.667 662.523 269.306 661.495 269.261 660.366H273.258C273.326 661.156 273.699 661.822 274.376 662.364C275.076 662.884 275.946 663.144 276.985 663.144C278.069 663.144 278.905 662.94 279.492 662.534C280.102 662.105 280.407 661.563 280.407 660.908C280.407 660.208 280.068 659.688 279.39 659.349C278.735 659.011 277.685 658.638 276.24 658.231C274.839 657.847 273.699 657.475 272.818 657.113C271.937 656.752 271.169 656.199 270.514 655.453C269.882 654.708 269.566 653.726 269.566 652.506C269.566 651.512 269.859 650.609 270.446 649.796C271.034 648.96 271.869 648.305 272.953 647.831C274.06 647.356 275.325 647.119 276.748 647.119C278.871 647.119 280.576 647.661 281.863 648.745C283.173 649.807 283.873 651.264 283.964 653.116H280.102C280.034 652.28 279.695 651.614 279.085 651.117C278.475 650.62 277.651 650.372 276.612 650.372C275.596 650.372 274.817 650.564 274.275 650.947C273.733 651.331 273.462 651.84 273.462 652.472C273.462 652.969 273.642 653.387 274.004 653.726C274.365 654.064 274.805 654.335 275.325 654.539C275.844 654.719 276.612 654.956 277.629 655.25C278.984 655.611 280.09 655.984 280.949 656.368C281.829 656.729 282.586 657.271 283.218 657.994C283.851 658.717 284.178 659.677 284.201 660.874C284.201 661.935 283.907 662.884 283.32 663.72C282.733 664.555 281.897 665.21 280.813 665.685C279.752 666.159 278.498 666.396 277.053 666.396ZM304.94 647.424V666.091H301.078V663.889C300.469 664.657 299.667 665.267 298.673 665.718C297.702 666.148 296.663 666.362 295.556 666.362C294.088 666.362 292.767 666.057 291.592 665.447C290.441 664.838 289.526 663.934 288.848 662.737C288.193 661.54 287.866 660.095 287.866 658.401V647.424H291.694V657.825C291.694 659.496 292.112 660.783 292.948 661.687C293.783 662.568 294.924 663.008 296.369 663.008C297.815 663.008 298.955 662.568 299.791 661.687C300.649 660.783 301.078 659.496 301.078 657.825V647.424H304.94ZM313.56 650.134C314.124 649.186 314.87 648.452 315.796 647.932C316.744 647.39 317.862 647.119 319.149 647.119V651.117H318.167C316.654 651.117 315.502 651.501 314.711 652.269C313.944 653.037 313.56 654.369 313.56 656.266V666.091H309.697V647.424H313.56V650.134ZM347.734 666.396C346.266 666.396 344.945 666.136 343.771 665.617C342.619 665.075 341.704 664.352 341.027 663.449C340.349 662.523 339.988 661.495 339.942 660.366H343.94C344.008 661.156 344.381 661.822 345.058 662.364C345.758 662.884 346.628 663.144 347.667 663.144C348.751 663.144 349.586 662.94 350.174 662.534C350.783 662.105 351.088 661.563 351.088 660.908C351.088 660.208 350.75 659.688 350.072 659.349C349.417 659.011 348.367 658.638 346.921 658.231C345.521 657.847 344.381 657.475 343.5 657.113C342.619 656.752 341.851 656.199 341.196 655.453C340.564 654.708 340.247 653.726 340.247 652.506C340.247 651.512 340.541 650.609 341.128 649.796C341.715 648.96 342.551 648.305 343.635 647.831C344.742 647.356 346.007 647.119 347.43 647.119C349.553 647.119 351.258 647.661 352.545 648.745C353.855 649.807 354.555 651.264 354.646 653.116H350.783C350.716 652.28 350.377 651.614 349.767 651.117C349.157 650.62 348.333 650.372 347.294 650.372C346.278 650.372 345.498 650.564 344.956 650.947C344.414 651.331 344.143 651.84 344.143 652.472C344.143 652.969 344.324 653.387 344.685 653.726C345.047 654.064 345.487 654.335 346.007 654.539C346.526 654.719 347.294 654.956 348.31 655.25C349.666 655.611 350.772 655.984 351.63 656.368C352.511 656.729 353.268 657.271 353.9 657.994C354.533 658.717 354.86 659.677 354.883 660.874C354.883 661.935 354.589 662.884 354.002 663.72C353.415 664.555 352.579 665.21 351.495 665.685C350.433 666.159 349.18 666.396 347.734 666.396ZM366.814 666.396C365.052 666.396 363.46 666.001 362.037 665.21C360.614 664.397 359.496 663.268 358.683 661.822C357.87 660.354 357.464 658.66 357.464 656.741C357.464 654.843 357.881 653.161 358.717 651.693C359.553 650.225 360.693 649.095 362.139 648.305C363.584 647.514 365.199 647.119 366.983 647.119C368.768 647.119 370.383 647.514 371.828 648.305C373.273 649.095 374.414 650.225 375.25 651.693C376.085 653.161 376.503 654.843 376.503 656.741C376.503 658.638 376.074 660.32 375.216 661.789C374.358 663.257 373.183 664.397 371.692 665.21C370.224 666.001 368.598 666.396 366.814 666.396ZM366.814 663.042C367.808 663.042 368.734 662.805 369.592 662.331C370.473 661.856 371.184 661.145 371.726 660.196C372.268 659.248 372.539 658.096 372.539 656.741C372.539 655.386 372.28 654.245 371.76 653.319C371.241 652.37 370.552 651.659 369.694 651.185C368.835 650.71 367.909 650.473 366.916 650.473C365.922 650.473 364.996 650.71 364.138 651.185C363.302 651.659 362.636 652.37 362.139 653.319C361.642 654.245 361.393 655.386 361.393 656.741C361.393 658.751 361.902 660.309 362.918 661.416C363.957 662.5 365.256 663.042 366.814 663.042ZM389.4 647.119C390.869 647.119 392.178 647.424 393.33 648.034C394.505 648.644 395.419 649.547 396.074 650.744C396.729 651.941 397.057 653.387 397.057 655.081V666.091H393.229V655.657C393.229 653.985 392.811 652.709 391.975 651.828C391.14 650.925 389.999 650.473 388.554 650.473C387.108 650.473 385.956 650.925 385.098 651.828C384.262 652.709 383.844 653.985 383.844 655.657V666.091H379.982V647.424H383.844V649.558C384.477 648.791 385.279 648.192 386.25 647.763C387.244 647.334 388.294 647.119 389.4 647.119ZM418.955 656.741C418.955 654.821 419.339 653.138 420.107 651.693C420.898 650.225 421.982 649.095 423.359 648.305C424.737 647.514 426.318 647.119 428.102 647.119C430.361 647.119 432.224 647.661 433.692 648.745C435.183 649.807 436.188 651.331 436.707 653.319H432.54C432.202 652.393 431.66 651.67 430.914 651.151C430.169 650.631 429.232 650.372 428.102 650.372C426.521 650.372 425.257 650.936 424.308 652.065C423.382 653.172 422.919 654.731 422.919 656.741C422.919 658.751 423.382 660.32 424.308 661.45C425.257 662.579 426.521 663.144 428.102 663.144C430.338 663.144 431.818 662.161 432.54 660.196H436.707C436.165 662.093 435.149 663.607 433.658 664.736C432.168 665.843 430.316 666.396 428.102 666.396C426.318 666.396 424.737 666.001 423.359 665.21C421.982 664.397 420.898 663.268 420.107 661.822C419.339 660.354 418.955 658.66 418.955 656.741ZM438.93 656.673C438.93 654.798 439.314 653.138 440.082 651.693C440.872 650.247 441.934 649.129 443.267 648.339C444.622 647.526 446.112 647.119 447.738 647.119C449.207 647.119 450.483 647.413 451.567 648C452.673 648.565 453.554 649.276 454.209 650.134V647.424H458.105V666.091H454.209V663.313C453.554 664.194 452.662 664.928 451.533 665.515C450.404 666.102 449.116 666.396 447.671 666.396C446.067 666.396 444.599 665.989 443.267 665.176C441.934 664.341 440.872 663.189 440.082 661.721C439.314 660.23 438.93 658.548 438.93 656.673ZM454.209 656.741C454.209 655.453 453.938 654.335 453.396 653.387C452.877 652.438 452.188 651.715 451.33 651.219C450.471 650.722 449.545 650.473 448.552 650.473C447.558 650.473 446.632 650.722 445.774 651.219C444.915 651.693 444.215 652.404 443.673 653.353C443.154 654.279 442.894 655.386 442.894 656.673C442.894 657.96 443.154 659.09 443.673 660.061C444.215 661.032 444.915 661.777 445.774 662.297C446.654 662.794 447.58 663.042 448.552 663.042C449.545 663.042 450.471 662.794 451.33 662.297C452.188 661.8 452.877 661.077 453.396 660.128C453.938 659.157 454.209 658.028 454.209 656.741ZM485.436 647.119C486.904 647.119 488.214 647.424 489.366 648.034C490.54 648.644 491.455 649.547 492.11 650.744C492.788 651.941 493.126 653.387 493.126 655.081V666.091H489.298V655.657C489.298 653.985 488.88 652.709 488.045 651.828C487.209 650.925 486.068 650.473 484.623 650.473C483.177 650.473 482.026 650.925 481.167 651.828C480.332 652.709 479.914 653.985 479.914 655.657V666.091H476.086V655.657C476.086 653.985 475.668 652.709 474.832 651.828C473.996 650.925 472.856 650.473 471.41 650.473C469.965 650.473 468.813 650.925 467.955 651.828C467.119 652.709 466.701 653.985 466.701 655.657V666.091H462.839V647.424H466.701V649.558C467.334 648.791 468.135 648.192 469.107 647.763C470.078 647.334 471.117 647.119 472.223 647.119C473.714 647.119 475.047 647.435 476.221 648.068C477.396 648.7 478.299 649.615 478.931 650.812C479.496 649.683 480.377 648.791 481.574 648.136C482.771 647.458 484.058 647.119 485.436 647.119ZM501.564 650.168C502.219 649.31 503.111 648.587 504.241 648C505.37 647.413 506.646 647.119 508.069 647.119C509.695 647.119 511.174 647.526 512.507 648.339C513.862 649.129 514.923 650.247 515.691 651.693C516.459 653.138 516.843 654.798 516.843 656.673C516.843 658.548 516.459 660.23 515.691 661.721C514.923 663.189 513.862 664.341 512.507 665.176C511.174 665.989 509.695 666.396 508.069 666.396C506.646 666.396 505.381 666.114 504.274 665.549C503.168 664.962 502.264 664.239 501.564 663.381V674.967H497.702V647.424H501.564V650.168ZM512.913 656.673C512.913 655.386 512.642 654.279 512.1 653.353C511.581 652.404 510.881 651.693 510 651.219C509.142 650.722 508.216 650.473 507.222 650.473C506.251 650.473 505.325 650.722 504.444 651.219C503.586 651.715 502.885 652.438 502.343 653.387C501.824 654.335 501.564 655.453 501.564 656.741C501.564 658.028 501.824 659.157 502.343 660.128C502.885 661.077 503.586 661.8 504.444 662.297C505.325 662.794 506.251 663.042 507.222 663.042C508.216 663.042 509.142 662.794 510 662.297C510.881 661.777 511.581 661.032 512.1 660.061C512.642 659.09 512.913 657.96 512.913 656.673ZM537.229 647.424V666.091H533.367V663.889C532.757 664.657 531.955 665.267 530.961 665.718C529.99 666.148 528.951 666.362 527.845 666.362C526.377 666.362 525.055 666.057 523.881 665.447C522.729 664.838 521.814 663.934 521.137 662.737C520.482 661.54 520.154 660.095 520.154 658.401V647.424H523.983V657.825C523.983 659.496 524.4 660.783 525.236 661.687C526.072 662.568 527.212 663.008 528.658 663.008C530.103 663.008 531.244 662.568 532.079 661.687C532.938 660.783 533.367 659.496 533.367 657.825V647.424H537.229ZM548.762 666.396C547.293 666.396 545.972 666.136 544.798 665.617C543.646 665.075 542.731 664.352 542.054 663.449C541.376 662.523 541.015 661.495 540.97 660.366H544.967C545.035 661.156 545.408 661.822 546.085 662.364C546.785 662.884 547.655 663.144 548.694 663.144C549.778 663.144 550.614 662.94 551.201 662.534C551.811 662.105 552.115 661.563 552.115 660.908C552.115 660.208 551.777 659.688 551.099 659.349C550.444 659.011 549.394 658.638 547.948 658.231C546.548 657.847 545.408 657.475 544.527 657.113C543.646 656.752 542.878 656.199 542.223 655.453C541.591 654.708 541.274 653.726 541.274 652.506C541.274 651.512 541.568 650.609 542.155 649.796C542.742 648.96 543.578 648.305 544.662 647.831C545.769 647.356 547.034 647.119 548.457 647.119C550.58 647.119 552.285 647.661 553.572 648.745C554.882 649.807 555.582 651.264 555.673 653.116H551.811C551.743 652.28 551.404 651.614 550.794 651.117C550.184 650.62 549.36 650.372 548.321 650.372C547.305 650.372 546.526 650.564 545.984 650.947C545.441 651.331 545.17 651.84 545.17 652.472C545.17 652.969 545.351 653.387 545.712 653.726C546.074 654.064 546.514 654.335 547.034 654.539C547.553 654.719 548.321 654.956 549.337 655.25C550.693 655.611 551.799 655.984 552.658 656.368C553.538 656.729 554.295 657.271 554.927 657.994C555.56 658.717 555.887 659.677 555.91 660.874C555.91 661.935 555.616 662.884 555.029 663.72C554.442 664.555 553.606 665.21 552.522 665.685C551.46 666.159 550.207 666.396 548.762 666.396ZM563.979 661.45L559.88 670.8H557.373L559.778 661.45H563.979ZM589.475 650.168C590.13 649.31 591.022 648.587 592.151 648C593.281 647.413 594.557 647.119 595.98 647.119C597.606 647.119 599.085 647.526 600.418 648.339C601.773 649.129 602.834 650.247 603.602 651.693C604.37 653.138 604.754 654.798 604.754 656.673C604.754 658.548 604.37 660.23 603.602 661.721C602.834 663.189 601.773 664.341 600.418 665.176C599.085 665.989 597.606 666.396 595.98 666.396C594.557 666.396 593.292 666.114 592.185 665.549C591.078 664.962 590.175 664.239 589.475 663.381V674.967H585.613V647.424H589.475V650.168ZM600.824 656.673C600.824 655.386 600.553 654.279 600.011 653.353C599.492 652.404 598.791 651.693 597.911 651.219C597.052 650.722 596.126 650.473 595.133 650.473C594.161 650.473 593.235 650.722 592.355 651.219C591.496 651.715 590.796 652.438 590.254 653.387C589.735 654.335 589.475 655.453 589.475 656.741C589.475 658.028 589.735 659.157 590.254 660.128C590.796 661.077 591.496 661.8 592.355 662.297C593.235 662.794 594.161 663.042 595.133 663.042C596.126 663.042 597.052 662.794 597.911 662.297C598.791 661.777 599.492 661.032 600.011 660.061C600.553 659.09 600.824 657.96 600.824 656.673ZM606.947 656.673C606.947 654.798 607.331 653.138 608.099 651.693C608.889 650.247 609.951 649.129 611.284 648.339C612.639 647.526 614.129 647.119 615.755 647.119C617.224 647.119 618.5 647.413 619.584 648C620.69 648.565 621.571 649.276 622.226 650.134V647.424H626.122V666.091H622.226V663.313C621.571 664.194 620.679 664.928 619.55 665.515C618.421 666.102 617.133 666.396 615.688 666.396C614.084 666.396 612.616 665.989 611.284 665.176C609.951 664.341 608.889 663.189 608.099 661.721C607.331 660.23 606.947 658.548 606.947 656.673ZM622.226 656.741C622.226 655.453 621.955 654.335 621.413 653.387C620.894 652.438 620.205 651.715 619.347 651.219C618.488 650.722 617.562 650.473 616.569 650.473C615.575 650.473 614.649 650.722 613.791 651.219C612.932 651.693 612.232 652.404 611.69 653.353C611.171 654.279 610.911 655.386 610.911 656.673C610.911 657.96 611.171 659.09 611.69 660.061C612.232 661.032 612.932 661.777 613.791 662.297C614.671 662.794 615.597 663.042 616.569 663.042C617.562 663.042 618.488 662.794 619.347 662.297C620.205 661.8 620.894 661.077 621.413 660.128C621.955 659.157 622.226 658.028 622.226 656.741ZM634.718 650.134C635.283 649.186 636.028 648.452 636.954 647.932C637.903 647.39 639.021 647.119 640.308 647.119V651.117H639.326C637.812 651.117 636.661 651.501 635.87 652.269C635.102 653.037 634.718 654.369 634.718 656.266V666.091H630.856V647.424H634.718V650.134ZM648.025 650.575V660.908C648.025 661.608 648.183 662.116 648.5 662.432C648.838 662.726 649.403 662.873 650.193 662.873H652.565V666.091H649.516C647.777 666.091 646.444 665.685 645.518 664.871C644.592 664.058 644.129 662.737 644.129 660.908V650.575H641.927V647.424H644.129V642.783H648.025V647.424H652.565V650.575H648.025ZM663.883 666.396C662.121 666.396 660.529 666.001 659.106 665.21C657.683 664.397 656.565 663.268 655.752 661.822C654.939 660.354 654.532 658.66 654.532 656.741C654.532 654.843 654.95 653.161 655.786 651.693C656.621 650.225 657.762 649.095 659.207 648.305C660.653 647.514 662.268 647.119 664.052 647.119C665.836 647.119 667.451 647.514 668.897 648.305C670.342 649.095 671.483 650.225 672.318 651.693C673.154 653.161 673.572 654.843 673.572 656.741C673.572 658.638 673.143 660.32 672.284 661.789C671.426 663.257 670.252 664.397 668.761 665.21C667.293 666.001 665.667 666.396 663.883 666.396ZM663.883 663.042C664.876 663.042 665.802 662.805 666.661 662.331C667.542 661.856 668.253 661.145 668.795 660.196C669.337 659.248 669.608 658.096 669.608 656.741C669.608 655.386 669.348 654.245 668.829 653.319C668.309 652.37 667.621 651.659 666.762 651.185C665.904 650.71 664.978 650.473 663.984 650.473C662.991 650.473 662.065 650.71 661.206 651.185C660.371 651.659 659.704 652.37 659.207 653.319C658.711 654.245 658.462 655.386 658.462 656.741C658.462 658.751 658.97 660.309 659.987 661.416C661.026 662.5 662.324 663.042 663.883 663.042ZM693.956 647.424V666.091H690.094V663.889C689.484 664.657 688.682 665.267 687.689 665.718C686.718 666.148 685.679 666.362 684.572 666.362C683.104 666.362 681.783 666.057 680.608 665.447C679.456 664.838 678.542 663.934 677.864 662.737C677.209 661.54 676.882 660.095 676.882 658.401V647.424H680.71V657.825C680.71 659.496 681.128 660.783 681.963 661.687C682.799 662.568 683.94 663.008 685.385 663.008C686.83 663.008 687.971 662.568 688.807 661.687C689.665 660.783 690.094 659.496 690.094 657.825V647.424H693.956ZM703.219 650.575V660.908C703.219 661.608 703.377 662.116 703.693 662.432C704.032 662.726 704.597 662.873 705.387 662.873H707.759V666.091H704.71C702.971 666.091 701.638 665.685 700.712 664.871C699.786 664.058 699.323 662.737 699.323 660.908V650.575H697.121V647.424H699.323V642.783H703.219V647.424H707.759V650.575H703.219ZM715.214 661.45L711.115 670.8H708.608L711.013 661.45H715.214ZM741.354 650.575V660.908C741.354 661.608 741.512 662.116 741.828 662.432C742.167 662.726 742.732 662.873 743.522 662.873H745.894V666.091H742.845C741.105 666.091 739.773 665.685 738.847 664.871C737.921 664.058 737.458 662.737 737.458 660.908V650.575H735.256V647.424H737.458V642.783H741.354V647.424H745.894V650.575H741.354ZM757.211 666.396C755.45 666.396 753.857 666.001 752.434 665.21C751.012 664.397 749.894 663.268 749.081 661.822C748.267 660.354 747.861 658.66 747.861 656.741C747.861 654.843 748.279 653.161 749.114 651.693C749.95 650.225 751.091 649.095 752.536 648.305C753.982 647.514 755.596 647.119 757.381 647.119C759.165 647.119 760.78 647.514 762.225 648.305C763.671 649.095 764.811 650.225 765.647 651.693C766.483 653.161 766.9 654.843 766.9 656.741C766.9 658.638 766.471 660.32 765.613 661.789C764.755 663.257 763.58 664.397 762.09 665.21C760.622 666.001 758.996 666.396 757.211 666.396ZM757.211 663.042C758.205 663.042 759.131 662.805 759.989 662.331C760.87 661.856 761.582 661.145 762.124 660.196C762.666 659.248 762.937 658.096 762.937 656.741C762.937 655.386 762.677 654.245 762.158 653.319C761.638 652.37 760.949 651.659 760.091 651.185C759.233 650.71 758.307 650.473 757.313 650.473C756.319 650.473 755.393 650.71 754.535 651.185C753.699 651.659 753.033 652.37 752.536 653.319C752.039 654.245 751.791 655.386 751.791 656.741C751.791 658.751 752.299 660.309 753.315 661.416C754.354 662.5 755.653 663.042 757.211 663.042ZM787.285 647.424V666.091H783.423V663.889C782.813 664.657 782.011 665.267 781.017 665.718C780.046 666.148 779.007 666.362 777.901 666.362C776.433 666.362 775.111 666.057 773.937 665.447C772.785 664.838 771.87 663.934 771.193 662.737C770.538 661.54 770.21 660.095 770.21 658.401V647.424H774.038V657.825C774.038 659.496 774.456 660.783 775.292 661.687C776.128 662.568 777.268 663.008 778.714 663.008C780.159 663.008 781.3 662.568 782.135 661.687C782.994 660.783 783.423 659.496 783.423 657.825V647.424H787.285ZM796.548 650.575V660.908C796.548 661.608 796.706 662.116 797.022 662.432C797.361 662.726 797.925 662.873 798.716 662.873H801.087V666.091H798.038C796.299 666.091 794.967 665.685 794.041 664.871C793.115 664.058 792.652 662.737 792.652 660.908V650.575H790.45V647.424H792.652V642.783H796.548V647.424H801.087V650.575H796.548ZM826.768 641.021V666.091H822.906V641.021H826.768ZM848.609 656.3C848.609 657 848.564 657.633 848.473 658.197H834.21C834.323 659.688 834.877 660.885 835.87 661.789C836.864 662.692 838.084 663.144 839.529 663.144C841.607 663.144 843.075 662.274 843.933 660.535H848.1C847.536 662.252 846.508 663.663 845.018 664.77C843.55 665.854 841.72 666.396 839.529 666.396C837.745 666.396 836.141 666.001 834.719 665.21C833.318 664.397 832.212 663.268 831.399 661.822C830.608 660.354 830.213 658.66 830.213 656.741C830.213 654.821 830.597 653.138 831.365 651.693C832.155 650.225 833.251 649.095 834.651 648.305C836.074 647.514 837.7 647.119 839.529 647.119C841.291 647.119 842.861 647.503 844.238 648.271C845.616 649.039 846.689 650.123 847.457 651.523C848.225 652.901 848.609 654.493 848.609 656.3ZM844.577 655.081C844.555 653.658 844.046 652.517 843.053 651.659C842.059 650.801 840.828 650.372 839.36 650.372C838.027 650.372 836.887 650.801 835.938 651.659C834.99 652.495 834.425 653.635 834.244 655.081H844.577ZM154.101 700.575V710.908C154.101 711.608 154.259 712.116 154.576 712.432C154.914 712.726 155.479 712.873 156.27 712.873H158.641V716.091H155.592C153.853 716.091 152.52 715.685 151.594 714.871C150.668 714.058 150.205 712.737 150.205 710.908V700.575H148.003V697.424H150.205V692.783H154.101V697.424H158.641V700.575H154.101ZM178.97 706.3C178.97 707 178.925 707.633 178.835 708.197H164.572C164.685 709.688 165.238 710.885 166.232 711.789C167.226 712.692 168.446 713.144 169.891 713.144C171.969 713.144 173.437 712.274 174.295 710.535H178.462C177.898 712.252 176.87 713.663 175.379 714.77C173.911 715.854 172.082 716.396 169.891 716.396C168.107 716.396 166.503 716.001 165.08 715.21C163.68 714.397 162.573 713.268 161.76 711.822C160.97 710.354 160.574 708.66 160.574 706.741C160.574 704.821 160.958 703.138 161.726 701.693C162.517 700.225 163.612 699.095 165.013 698.305C166.435 697.514 168.062 697.119 169.891 697.119C171.653 697.119 173.222 697.503 174.6 698.271C175.978 699.039 177.051 700.123 177.819 701.523C178.586 702.901 178.97 704.493 178.97 706.3ZM174.939 705.081C174.916 703.658 174.408 702.517 173.414 701.659C172.421 700.801 171.19 700.372 169.722 700.372C168.389 700.372 167.249 700.801 166.3 701.659C165.351 702.495 164.787 703.635 164.606 705.081H174.939ZM205.029 697.119C206.497 697.119 207.807 697.424 208.959 698.034C210.133 698.644 211.048 699.547 211.703 700.744C212.381 701.941 212.719 703.387 212.719 705.081V716.091H208.891V705.657C208.891 703.985 208.473 702.709 207.638 701.828C206.802 700.925 205.661 700.473 204.216 700.473C202.771 700.473 201.619 700.925 200.76 701.828C199.925 702.709 199.507 703.985 199.507 705.657V716.091H195.679V705.657C195.679 703.985 195.261 702.709 194.425 701.828C193.59 700.925 192.449 700.473 191.004 700.473C189.558 700.473 188.406 700.925 187.548 701.828C186.712 702.709 186.294 703.985 186.294 705.657V716.091H182.432V697.424H186.294V699.558C186.927 698.791 187.729 698.192 188.7 697.763C189.671 697.334 190.71 697.119 191.817 697.119C193.307 697.119 194.64 697.435 195.814 698.068C196.989 698.7 197.892 699.615 198.524 700.812C199.089 699.683 199.97 698.791 201.167 698.136C202.364 697.458 203.651 697.119 205.029 697.119ZM221.157 700.168C221.812 699.31 222.704 698.587 223.834 698C224.963 697.413 226.239 697.119 227.662 697.119C229.288 697.119 230.767 697.526 232.1 698.339C233.455 699.129 234.517 700.247 235.284 701.693C236.052 703.138 236.436 704.798 236.436 706.673C236.436 708.548 236.052 710.23 235.284 711.721C234.517 713.189 233.455 714.341 232.1 715.176C230.767 715.989 229.288 716.396 227.662 716.396C226.239 716.396 224.974 716.114 223.868 715.549C222.761 714.962 221.857 714.239 221.157 713.381V724.967H217.295V697.424H221.157V700.168ZM232.506 706.673C232.506 705.386 232.235 704.279 231.693 703.353C231.174 702.404 230.474 701.693 229.593 701.219C228.735 700.722 227.809 700.473 226.815 700.473C225.844 700.473 224.918 700.722 224.037 701.219C223.179 701.715 222.479 702.438 221.936 703.387C221.417 704.335 221.157 705.453 221.157 706.741C221.157 708.028 221.417 709.157 221.936 710.128C222.479 711.077 223.179 711.8 224.037 712.297C224.918 712.794 225.844 713.042 226.815 713.042C227.809 713.042 228.735 712.794 229.593 712.297C230.474 711.777 231.174 711.032 231.693 710.061C232.235 709.09 232.506 707.96 232.506 706.673ZM246.692 716.396C245.224 716.396 243.903 716.136 242.729 715.617C241.577 715.075 240.662 714.352 239.985 713.449C239.307 712.523 238.946 711.495 238.9 710.366H242.898C242.966 711.156 243.339 711.822 244.016 712.364C244.716 712.884 245.586 713.144 246.625 713.144C247.709 713.144 248.544 712.94 249.132 712.534C249.742 712.105 250.046 711.563 250.046 710.908C250.046 710.208 249.708 709.688 249.03 709.349C248.375 709.011 247.325 708.638 245.879 708.231C244.479 707.847 243.339 707.475 242.458 707.113C241.577 706.752 240.809 706.199 240.154 705.453C239.522 704.708 239.205 703.726 239.205 702.506C239.205 701.512 239.499 700.609 240.086 699.796C240.673 698.96 241.509 698.305 242.593 697.831C243.7 697.356 244.965 697.119 246.388 697.119C248.511 697.119 250.216 697.661 251.503 698.745C252.813 699.807 253.513 701.264 253.604 703.116H249.742C249.674 702.28 249.335 701.614 248.725 701.117C248.115 700.62 247.291 700.372 246.252 700.372C245.236 700.372 244.456 700.564 243.914 700.947C243.372 701.331 243.101 701.84 243.101 702.472C243.101 702.969 243.282 703.387 243.643 703.726C244.005 704.064 244.445 704.335 244.965 704.539C245.484 704.719 246.252 704.956 247.268 705.25C248.624 705.611 249.73 705.984 250.588 706.368C251.469 706.729 252.226 707.271 252.858 707.994C253.491 708.717 253.818 709.677 253.841 710.874C253.841 711.935 253.547 712.884 252.96 713.72C252.373 714.555 251.537 715.21 250.453 715.685C249.391 716.159 248.138 716.396 246.692 716.396ZM259.233 716.328C258.533 716.328 257.946 716.091 257.472 715.617C256.998 715.142 256.76 714.555 256.76 713.855C256.76 713.155 256.998 712.568 257.472 712.093C257.946 711.619 258.533 711.382 259.233 711.382C259.911 711.382 260.487 711.619 260.961 712.093C261.436 712.568 261.673 713.155 261.673 713.855C261.673 714.555 261.436 715.142 260.961 715.617C260.487 716.091 259.911 716.328 259.233 716.328Z" fill="#302F2E"/>
<defs>
<filter id="filter0_d_855_1984" x="659.709" y="159.935" width="194.812" height="179.823" filterUnits="userSpaceOnUse" color-interpolation-filters="sRGB">
<feFlood flood-opacity="0" result="BackgroundImageFix"/>
<feColorMatrix in="SourceAlpha" type="matrix" values="0 0 0 0 0 0 0 0 0 0 0 0 0 0 0 0 0 0 127 0" result="hardAlpha"/>
<feOffset/>
<feGaussianBlur stdDeviation="3.9871"/>
<feComposite in2="hardAlpha" operator="out"/>
<feColorMatrix type="matrix" values="0 0 0 0 0 0 0 0 0 0 0 0 0 0 0 0 0 0 0.1 0"/>
<feBlend mode="normal" in2="BackgroundImageFix" result="effect1_dropShadow_855_1984"/>
<feBlend mode="normal" in="SourceGraphic" in2="effect1_dropShadow_855_1984" result="shape"/>
</filter>
<linearGradient id="paint0_linear_855_1984" x1="757.089" y1="202.948" x2="757.089" y2="366.467" gradientUnits="userSpaceOnUse">
<stop stop-color="#1BA3F0"/>
<stop offset="1" stop-color="#1BA3F0"/>
</linearGradient>
<linearGradient id="paint1_linear_855_1984" x1="757.151" y1="196.645" x2="754.347" y2="371.625" gradientUnits="userSpaceOnUse">
<stop stop-color="#07E1FD"/>
<stop offset="1" stop-color="#01A0F2" stop-opacity="0.65"/>
</linearGradient>
<linearGradient id="paint2_linear_855_1984" x1="757.151" y1="196.645" x2="754.347" y2="371.625" gradientUnits="userSpaceOnUse">
<stop stop-color="#07E1FD"/>
<stop offset="1" stop-color="#01A0F2" stop-opacity="0.65"/>
</linearGradient>
<linearGradient id="paint3_linear_855_1984" x1="757.151" y1="196.645" x2="754.347" y2="371.625" gradientUnits="userSpaceOnUse">
<stop stop-color="#07E1FD"/>
<stop offset="1" stop-color="#01A0F2" stop-opacity="0.65"/>
</linearGradient>
</defs>
</svg>
