<svg width="20" height="20" viewBox="0 0 20 20" fill="none" xmlns="http://www.w3.org/2000/svg">
<path d="M14.2887 6.6443V2.731C14.2887 2.32651 13.9621 2 13.5577 2H5.731C5.32653 2 5 2.32651 5 2.731V6.6443C5 8.95427 6.70083 10.8695 8.91332 11.2253V15.6454H7.20765C6.80315 15.6454 6.47664 15.9719 6.47664 16.3764C6.47664 16.7809 6.80315 17.1074 7.20765 17.1074H12.081C12.4855 17.1074 12.812 16.7809 12.812 16.3764C12.812 15.9719 12.4855 15.6454 12.081 15.6454H10.3753V11.2253C12.5878 10.8695 14.2887 8.95427 14.2887 6.6443Z" fill="#D9D9D9"/>
</svg>
