<svg width="23" height="6" viewBox="0 0 23 6" fill="none" xmlns="http://www.w3.org/2000/svg">
<g clip-path="url(#clip0_2065_12538)">
<path d="M8.28391 2.76038C8.28391 1.23519 9.52021 -0.0012207 11.0453 -0.0012207C12.5703 -0.0012207 13.8066 1.23519 13.8066 2.76038C13.8066 4.28556 12.5703 5.52197 11.0453 5.52197C9.52021 5.52197 8.28391 4.28556 8.28391 2.76038Z" fill="#D9D9D9"/>
<path d="M16.5681 2.76086C16.5681 1.23568 17.8044 -0.000732422 19.3295 -0.000732422C20.8545 -0.000732422 22.0908 1.23568 22.0908 2.76086C22.0908 4.28605 20.8545 5.52246 19.3295 5.52246C17.8044 5.52246 16.5681 4.28605 16.5681 2.76086Z" fill="#D9D9D9"/>
<path d="M-3.05176e-05 2.76038C-3.05176e-05 1.23519 1.23623 -0.0012207 2.76134 -0.0012207C4.28644 -0.0012207 5.52271 1.23519 5.52271 2.76038C5.52271 4.28556 4.28644 5.52197 2.76134 5.52197C1.23623 5.52197 -3.05176e-05 4.28556 -3.05176e-05 2.76038Z" fill="#D9D9D9"/>
</g>
<defs>
<clipPath id="clip0_2065_12538">
<rect width="22.0909" height="5.52319" fill="white" transform="matrix(-1 0 0 -1 22.0908 5.52344)"/>
</clipPath>
</defs>
</svg>
