<svg width="20" height="20" viewBox="0 0 20 20" fill="none" xmlns="http://www.w3.org/2000/svg">
<g clip-path="url(#clip0_1741_12540)">
<path d="M4.12524 18.4688C4.12524 18.7609 3.88452 19 3.59399 19H2.53149C2.24097 19 2.00024 18.7609 2.00024 18.4688V3.0625C2.00024 2.47314 2.47339 2 3.06274 2C3.6521 2 4.12524 2.47314 4.12524 3.0625V18.4688ZM17.8149 2C17.6036 2 17.3829 2.04482 17.1727 2.14055C15.6557 2.83317 14.5311 3.06824 13.5934 3.06824C11.6026 3.06824 10.4455 2.01039 8.15145 2.01006C7.34263 2.01014 6.36978 2.1616 5.18774 2.52295V14.1606C6.25024 13.8291 7.17562 13.6925 8.00503 13.6925C10.4498 13.6925 12.1521 14.7477 14.5992 14.7477C15.6587 14.7477 16.8576 14.5494 18.288 13.981C18.7379 13.817 19.0002 13.4352 19.0002 13.0268V3.02033C19.0002 2.36855 18.4458 2 17.8149 2Z" fill="#D9D9D9"/>
</g>
<defs>
<clipPath id="clip0_1741_12540">
<rect width="17" height="17" fill="white" transform="translate(2.00024 2)"/>
</clipPath>
</defs>
</svg>
