<svg width="20" height="20" viewBox="0 0 20 20" fill="none" xmlns="http://www.w3.org/2000/svg">
<path d="M4.0875 5H2.6625C2.26766 5 1.95 5.33437 1.95 5.75V9H1.2375C1.10687 9 1 9.1125 1 9.25V10.75C1 10.8875 1.10687 11 1.2375 11H1.95V14.25C1.95 14.6656 2.26766 15 2.6625 15H4.0875C4.48234 15 4.8 14.6656 4.8 14.25V5.75C4.8 5.33437 4.48234 5 4.0875 5ZM19.7625 9H19.05V5.75C19.05 5.33437 18.7323 5 18.3375 5H16.9125C16.5177 5 16.2 5.33437 16.2 5.75V14.25C16.2 14.6656 16.5177 15 16.9125 15H18.3375C18.7323 15 19.05 14.6656 19.05 14.25V11H19.7625C19.8931 11 20 10.8875 20 10.75V9.25C20 9.1125 19.8931 9 19.7625 9ZM14.5375 3H13.1125C12.7177 3 12.4 3.33437 12.4 3.75V9H8.6V3.75C8.6 3.33437 8.28234 3 7.8875 3H6.4625C6.06766 3 5.75 3.33437 5.75 3.75V16.25C5.75 16.6656 6.06766 17 6.4625 17H7.8875C8.28234 17 8.6 16.6656 8.6 16.25V11H12.4V16.25C12.4 16.6656 12.7177 17 13.1125 17H14.5375C14.9323 17 15.25 16.6656 15.25 16.25V3.75C15.25 3.33437 14.9323 3 14.5375 3Z" fill="#D9D9D9"/>
</svg>
