<svg width="20" height="20" viewBox="0 0 20 20" fill="none" xmlns="http://www.w3.org/2000/svg">
<path d="M15.5109 5.40652H14.5936V4.48918C14.5936 2.47103 12.9424 0.819824 10.9242 0.819824H9.08954C7.0714 0.819824 5.42019 2.47103 5.42019 4.48918V5.40652H4.50285C2.48471 5.40652 0.833496 7.05773 0.833496 9.07587V15.4972C0.833496 17.5154 2.48471 19.1666 4.50285 19.1666H15.5109C17.5291 19.1666 19.1803 17.5154 19.1803 15.4972V9.07587C19.1803 7.05773 17.5291 5.40652 15.5109 5.40652ZM8.17221 4.48918C8.17221 3.93878 8.53914 3.57184 9.08954 3.57184H10.9242C11.4746 3.57184 11.8416 3.93878 11.8416 4.48918V5.40652H8.17221V4.48918ZM10.9242 16.4146H9.08954C8.53914 16.4146 8.17221 16.0476 8.17221 15.4972C8.17221 14.9468 8.53914 14.5799 9.08954 14.5799H10.9242C11.4746 14.5799 11.8416 14.9468 11.8416 15.4972C11.8416 16.0476 11.4746 16.4146 10.9242 16.4146Z" fill="#D9D9D9"/>
</svg>
