<svg width="22" height="22" viewBox="0 0 22 22" fill="none" xmlns="http://www.w3.org/2000/svg">
<g clip-path="url(#clip0_1741_12535)">
<path d="M6.38945 7.36055L2.75902 3.73098C1.53914 5.11285 0.657852 6.79809 0.253945 8.66379C0.834023 8.82578 1.43258 8.9375 2.0625 8.9375C3.70992 8.9375 5.20352 8.33164 6.38945 7.36055ZM8.35742 7.38633L11 10.0289L18.2703 2.75859C16.3281 1.04715 13.7887 0 11 0C10.682 0 10.3641 0.0211492 10.016 0.0478242C10.218 0.693945 10.3125 1.36641 10.3125 2.0625C10.3125 4.0902 9.57344 5.94687 8.35742 7.38633ZM8.9375 2.0625C8.9375 1.43258 8.82479 0.834023 8.66534 0.253945C6.79766 0.657852 5.07461 1.53914 3.73098 2.75902L7.36098 6.38902C8.33164 5.20352 8.9375 3.70992 8.9375 2.0625ZM7.38633 8.35742C5.94687 9.57344 4.0902 10.3125 2.0625 10.3125C1.36641 10.3125 0.693945 10.2164 0.0476953 10.0534C0.0211492 10.3641 0 10.682 0 11C0 13.79 1.04715 16.3281 2.75902 18.2703L10.0289 11L7.38633 8.35742ZM13.6426 14.6137L11 11.9711L3.72969 19.2414C5.6332 20.9516 8.21133 22 11 22C11.3196 22 11.6338 21.9789 11.9466 21.9522C11.782 21.3039 11.6875 20.6336 11.6875 19.9375C11.6875 17.9094 12.4266 16.0531 13.6426 14.6137ZM15.6105 14.6395L19.2405 18.2695C20.4604 16.8876 21.3417 15.2023 21.7456 13.3366C21.1664 13.1742 20.5691 13.0625 19.9375 13.0625C18.2918 13.0625 16.7965 13.6684 15.6105 14.6395ZM19.2414 3.73098L11.9711 11L14.6145 13.6434C16.0531 12.4266 17.9094 11.6875 19.9375 11.6875C20.6336 11.6875 21.3061 11.7836 21.9523 11.9466C21.9785 11.6359 22 11.318 22 11C22 8.21133 20.9516 5.6332 19.2414 3.73098ZM13.0625 19.9375C13.0625 20.5674 13.1752 21.166 13.3347 21.7461C15.2021 21.3421 16.8869 20.4609 18.2675 19.241L14.6375 15.611C13.6684 16.7965 13.0625 18.2918 13.0625 19.9375Z" fill="#D9D9D9"/>
</g>
<defs>
<clipPath id="clip0_1741_12535">
<rect width="22" height="22" fill="white"/>
</clipPath>
</defs>
</svg>
