<svg width="20" height="19" viewBox="0 0 20 19" fill="none" xmlns="http://www.w3.org/2000/svg">
<path d="M7.23124 6.67177C7.23124 6.67177 3.6609 7.06723 1.27917 7.33162C1.0645 7.3576 0.874687 7.5011 0.803507 7.71916C0.732326 7.93723 0.803507 8.16433 0.961686 8.30782C2.73104 9.92241 5.38958 12.3403 5.38958 12.3403C5.38732 12.3403 4.65969 15.8576 4.17612 18.2043C4.13544 18.4168 4.21227 18.6416 4.39757 18.7761C4.58173 18.9105 4.819 18.9128 5.00543 18.8077C7.08888 17.6236 10.2095 15.8429 10.2095 15.8429C10.2095 15.8429 13.3313 17.6236 15.4114 18.8088C15.6012 18.9128 15.8385 18.9105 16.0226 18.7761C16.2079 18.6416 16.2847 18.4168 16.2429 18.2055C15.7594 15.8576 15.0329 12.3403 15.0329 12.3403C15.0329 12.3403 17.6914 9.92241 19.4608 8.31121C19.6189 8.1632 19.689 7.9361 19.6189 7.71916C19.5489 7.50223 19.3591 7.35873 19.1444 7.33388C16.7627 7.06723 13.1912 6.67177 13.1912 6.67177C13.1912 6.67177 11.7111 3.39741 10.7247 1.21451C10.6321 1.01904 10.4378 0.882324 10.2095 0.882324C9.9813 0.882324 9.78584 1.02017 9.69771 1.21451C8.71022 3.39741 7.23124 6.67177 7.23124 6.67177Z" fill="#D9D9D9"/>
</svg>
