<svg width="20" height="20" viewBox="0 0 20 20" fill="none" xmlns="http://www.w3.org/2000/svg">
<path d="M8.17184 19.2348C9.1851 19.2348 10.0065 18.4134 10.0065 17.4001C10.0065 16.3868 9.1851 15.5654 8.17184 15.5654C7.15857 15.5654 6.33716 16.3868 6.33716 17.4001C6.33716 18.4134 7.15857 19.2348 8.17184 19.2348Z" fill="#D9D9D9"/>
<path d="M13.676 19.2348C14.6893 19.2348 15.5107 18.4134 15.5107 17.4001C15.5107 16.3868 14.6893 15.5654 13.676 15.5654C12.6627 15.5654 11.8413 16.3868 11.8413 17.4001C11.8413 18.4134 12.6627 19.2348 13.676 19.2348Z" fill="#D9D9D9"/>
<path d="M18.8131 6.21021C18.4462 5.75154 17.8958 5.47634 17.3453 5.47634H6.88769L6.33728 2.35739C6.15382 1.53179 5.41995 0.889648 4.50261 0.889648H2.66793C1.65886 0.889648 0.833252 1.71525 0.833252 2.72433C0.833252 3.7334 1.65886 4.559 2.66793 4.559H2.94313L4.50261 12.2646C4.68607 13.182 5.41995 13.7324 6.33728 13.7324H15.5107C16.3363 13.7324 16.9784 13.182 17.2536 12.4481L19.0883 7.86142C19.2718 7.31102 19.18 6.76062 18.8131 6.21021Z" fill="#D9D9D9"/>
</svg>
