<svg width="22" height="22" viewBox="0 0 22 22" fill="none" xmlns="http://www.w3.org/2000/svg">
<path d="M22 11C22 17.0751 17.0751 22 11 22C4.92485 22 0 17.0751 0 11C0 4.92485 4.92485 0 11 0C17.0751 0 22 4.92485 22 11ZM19.871 11L19.8708 10.9875L18.7148 11.9962L15.9347 9.40141L16.6645 5.65985L18.186 5.79611C17.082 4.27847 15.5245 3.13088 13.719 2.55196L14.3245 3.9686L11 5.81048L7.67547 3.96865L8.28096 2.552C6.47878 3.12985 4.91975 4.27607 3.81403 5.79616L5.34715 5.65985L6.06535 9.40141L3.28527 11.9962L2.12921 10.9875L2.12908 11C2.12908 12.9079 2.72773 14.7237 3.8355 16.2335L4.17721 14.73L7.95349 15.1933L9.56361 18.6453L8.23731 19.4342C10.0205 20.0162 11.976 20.0174 13.7627 19.4342L12.4364 18.6453L14.0465 15.1933L17.8228 14.73L18.1645 16.2335C19.2723 14.7237 19.871 12.9079 19.871 11ZM8.86644 14.0858L7.5405 10.0357L11 7.52844L14.4595 10.0357L13.1456 14.0858H8.86644Z" fill="#D9D9D9"/>
</svg>
