<svg width="20" height="20" viewBox="0 0 20 20" fill="none" xmlns="http://www.w3.org/2000/svg">
<path d="M8.2 19V15.4C8.2 14.9226 8.38964 14.4648 8.72721 14.1272C9.06477 13.7896 9.52261 13.6 10 13.6C10.4774 13.6 10.9352 13.7896 11.2728 14.1272C11.6104 14.4648 11.8 14.9226 11.8 15.4V19H15.4V10C15.4 9.8447 15.3598 9.69205 15.2833 9.5569C15.2068 9.42174 15.0966 9.30868 14.9635 9.2287L10.9 6.7906V4.6H12.7V2.8H10.9V1H9.1V2.8H7.3V4.6H9.1V6.7906L5.0365 9.2287C4.90338 9.30868 4.79322 9.42174 4.71673 9.5569C4.64024 9.69205 4.60003 9.8447 4.6 10V19H8.2ZM1.9 19H3.7V11.6938L1.4977 12.7954C1.3481 12.8699 1.22225 12.9847 1.13433 13.1269C1.0464 13.269 0.999882 13.4329 1 13.6V18.1C1 18.3387 1.09482 18.5676 1.2636 18.7364C1.43239 18.9052 1.66131 19 1.9 19ZM18.5023 12.7945L16.3 11.6938V19H18.1C18.3387 19 18.5676 18.9052 18.7364 18.7364C18.9052 18.5676 19 18.3387 19 18.1V13.6C19 13.2589 18.8074 12.9475 18.5023 12.7945Z" fill="#D9D9D9"/>
</svg>
