<svg width="20" height="20" viewBox="0 0 20 20" fill="none" xmlns="http://www.w3.org/2000/svg">
<g clip-path="url(#clip0_1741_12543)">
<path d="M18.9684 13.9059C18.9684 15.4591 17.4573 16.7184 15.625 16.7184C13.7927 16.7184 12.2816 15.4591 12.2816 13.9375C12.2816 12.3843 13.7927 11.1566 15.625 11.1566C16.0216 11.1566 16.3967 11.2241 16.7504 11.3288V6.20664L7.75 8.875L7.74992 16.191C7.71836 17.7414 6.23828 19 4.34336 19C2.44844 19 1 17.7414 1 16.1875C1 14.6343 2.51102 13.4066 4.34336 13.4066C4.73992 13.4066 5.11504 13.4741 5.46836 13.5788V5.44727C5.46836 4.99129 5.82203 4.51105 6.25621 4.3743L17.4746 1.05238C17.5973 1.02326 17.7801 1 17.875 1C18.4959 1 18.9989 1.50414 19 2.12465L18.9684 13.9059Z" fill="#D9D9D9"/>
</g>
<defs>
<clipPath id="clip0_1741_12543">
<rect width="18" height="18" fill="white" transform="translate(1 1)"/>
</clipPath>
</defs>
</svg>
