<svg width="22" height="22" viewBox="0 0 22 22" fill="none" xmlns="http://www.w3.org/2000/svg">
<path d="M5.25299 11.8935L9.29216 15.935L7.67718 17.5511L9.29445 19.1684L7.67832 20.7845L4.84952 17.9557L1.61613 21.1891L0 19.573L3.2334 16.3384L0.404603 13.5108L2.02073 11.8946L3.63686 13.5096L5.25184 11.8935H5.25299ZM0.624049 0L4.67694 0.00342886L18.1831 13.5108L19.8004 11.8946L21.4165 13.5108L18.5889 16.3396L21.8211 19.573L20.205 21.1891L16.9716 17.9557L14.1428 20.7845L12.5267 19.1684L14.1428 17.5511L0.627478 4.03575L0.624049 0ZM17.1476 0L21.1971 0.00342886L21.1994 4.03003L16.567 8.66125L12.5256 4.62093L17.1476 0Z" fill="#D9D9D9"/>
</svg>
