<svg width="23" height="23" viewBox="0 0 23 23" fill="none" xmlns="http://www.w3.org/2000/svg">
<path d="M21.2935 8.21739C21.0573 7.65603 20.6649 7.25129 20.1584 7.04744L20.1516 7.04488C19.9211 6.95459 19.6757 6.9084 19.4281 6.90869H19.4009C18.2415 6.92614 17.058 7.91139 16.4562 9.36053C16.0148 10.4203 15.9642 11.56 16.3208 12.4095C16.5566 12.9712 16.9499 13.376 17.4584 13.5798L17.464 13.582C17.6945 13.6722 17.9399 13.7184 18.1875 13.7182C19.3579 13.7182 20.5538 12.7329 21.1666 11.2646C21.6024 10.2062 21.6505 9.0673 21.2935 8.21739Z" fill="#D9D9D9"/>
<path d="M16.6613 14.4673C15.9927 14.0656 15.3607 13.6855 14.9479 13.0029C13.809 11.1132 13.1213 9.97266 11.318 9.97266C9.51478 9.97266 8.82533 11.1132 7.68389 13.0029C7.27021 13.6864 6.63693 14.0669 5.9662 14.4703C5.19715 14.9325 4.40257 15.41 4.05955 16.3497C3.92619 16.6885 3.85902 17.0497 3.86165 17.4137C3.86165 18.9437 5.0533 20.1886 6.51734 20.1886C7.27277 20.1886 8.07671 19.9268 8.92747 19.6498C9.74545 19.3833 10.5911 19.108 11.3223 19.108C12.0534 19.108 12.897 19.3833 13.712 19.6498C14.561 19.9251 15.3611 20.1869 16.1187 20.1869C17.5806 20.1869 18.7701 18.942 18.7701 17.412C18.7713 17.0477 18.7027 16.6865 18.568 16.348C18.2249 15.4075 17.4299 14.9295 16.6613 14.4673Z" fill="#D9D9D9"/>
<path d="M6.80661 8.47688C7.31306 9.11229 7.95571 9.46213 8.61622 9.46213C8.7064 9.46213 8.79644 9.45544 8.88562 9.44213C10.2633 9.23954 11.1217 7.55846 10.8399 5.6118C10.7221 4.79339 10.4071 4.03115 9.95599 3.46596C9.45038 2.83183 8.80689 2.48242 8.1468 2.48242C8.05663 2.48242 7.96658 2.48911 7.8774 2.50242C6.49976 2.70501 5.64134 4.38609 5.92308 6.33275C6.04054 7.14989 6.35548 7.91127 6.80661 8.47688Z" fill="#D9D9D9"/>
<path d="M13.7507 9.442C13.8399 9.45531 13.9299 9.462 14.0201 9.462C14.681 9.462 15.3233 9.11217 15.8297 8.47676C16.2804 7.91115 16.5936 7.14976 16.7128 6.33178C16.9946 4.38597 16.1361 2.70488 14.7585 2.50145C14.6693 2.48813 14.5793 2.48145 14.4891 2.48145C13.829 2.4823 13.1855 2.83171 12.6799 3.46584C12.2288 4.03103 11.9138 4.79326 11.7964 5.61252C11.5146 7.55833 12.373 9.23942 13.7507 9.442Z" fill="#D9D9D9"/>
<path d="M5.17186 13.582L5.17782 13.5798C5.68555 13.376 6.07837 12.9717 6.31373 12.4103C6.67037 11.5591 6.62015 10.4207 6.17966 9.36095C5.56979 7.89436 4.3743 6.90869 3.2052 6.90869C2.95763 6.90834 2.7122 6.95453 2.4817 7.04488L2.47574 7.04701C1.96928 7.24917 1.57646 7.65518 1.34111 8.21654C0.984464 9.06772 1.03468 10.2062 1.47517 11.2659C2.08504 12.7325 3.28053 13.7182 4.44963 13.7182C4.69678 13.7184 4.94176 13.6722 5.17186 13.582Z" fill="#D9D9D9"/>
</svg>
