<svg width="21" height="21" viewBox="0 0 21 21" fill="none" xmlns="http://www.w3.org/2000/svg">
<path d="M16.9969 9.92383C15.2533 9.92383 13.8347 11.3425 13.8347 13.086V13.6635C13.1346 13.4133 11.7804 13.086 9.48662 13.086C7.19283 13.086 5.83901 13.4133 5.13858 13.6635V13.086C5.13858 11.3425 3.71994 9.92383 1.97638 9.92383C0.886603 9.92383 0 10.8104 0 11.9002C0 12.7006 0.477493 13.4173 1.21705 13.7252C1.43841 13.8181 1.5811 14.0327 1.5811 14.2719L1.97638 15.853C1.97638 17.272 3.05113 18.444 4.42946 18.6009C4.10494 18.7559 3.87884 19.0847 3.87884 19.4682C3.87884 20.0002 4.31048 20.4318 4.84252 20.4318C5.37456 20.4318 5.8062 20.0002 5.8062 19.4682C5.8062 19.099 5.59592 18.782 5.29077 18.6199H13.6837C13.3785 18.7816 13.1682 19.0986 13.1682 19.4682C13.1682 20.0002 13.5999 20.4318 14.1319 20.4318C14.6639 20.4318 15.0956 20.0002 15.0956 19.4682C15.0956 19.0847 14.8695 18.7559 14.545 18.6009C15.9221 18.444 16.9969 17.272 16.9969 15.853L17.3921 14.2719C17.3921 14.0323 17.5348 13.8181 17.7562 13.7252C18.4957 13.4177 18.9732 12.7006 18.9732 11.9002C18.9732 10.8104 18.0866 9.92383 16.9969 9.92383Z" fill="#D9D9D9"/>
<path d="M6.22573 12.1622C7.0483 12.012 8.1191 11.9005 9.48675 11.9005C10.8544 11.9005 11.9252 12.012 12.7478 12.1622C13.0585 10.7313 14.0775 9.56365 15.4163 9.03912V6.92914C15.4163 3.65467 12.7616 1 9.48675 1C6.21229 1 3.55762 3.65467 3.55762 6.92914V9.03951C4.89642 9.56404 5.91504 10.7317 6.22573 12.1622Z" fill="#D9D9D9"/>
</svg>
