<svg width="22" height="23" viewBox="0 0 22 23" fill="none" xmlns="http://www.w3.org/2000/svg">
<path d="M8.46154 12.375V9.625C8.46154 9.49405 8.39103 9.42857 8.25 9.42857H6.98077C6.83974 9.42857 6.76923 9.49405 6.76923 9.625V12.375C6.76923 12.506 6.83974 12.5714 6.98077 12.5714H8.25C8.39103 12.5714 8.46154 12.506 8.46154 12.375ZM15.2308 12.375V9.625C15.2308 9.49405 15.1603 9.42857 15.0192 9.42857H13.75C13.609 9.42857 13.5385 9.49405 13.5385 9.625V12.375C13.5385 12.506 13.609 12.5714 13.75 12.5714H15.0192C15.1603 12.5714 15.2308 12.506 15.2308 12.375ZM22 12.7679V20.6492C22 21.3952 21.3952 22 20.6492 22H14.8892C14.1432 22 13.5385 21.3952 13.5385 20.6492V18.0714C13.5385 17.4167 13.2917 16.8601 12.7981 16.4018C12.3045 15.9435 11.7051 15.7143 11 15.7143C10.2949 15.7143 9.69551 15.9435 9.20192 16.4018C8.70833 16.8601 8.46154 17.4167 8.46154 18.0714V20.6492C8.46154 21.3952 7.85678 22 7.11078 22H1.35076C0.604754 22 0 21.3952 0 20.6492V12.7679C0 12.6369 0.0705128 12.5714 0.211538 12.5714H1.48077C1.62179 12.5714 1.69231 12.6369 1.69231 12.7679V13.2967C1.69231 13.764 2.07114 14.1429 2.53846 14.1429C3.00578 14.1429 3.38462 13.764 3.38462 13.2967V6.48214C3.38462 6.35119 3.45513 6.28571 3.59615 6.28571H4.86538C5.00641 6.28571 5.07692 6.35119 5.07692 6.48214V7.01099C5.07692 7.47831 5.45576 7.85714 5.92308 7.85714C6.39039 7.85714 6.76923 7.47831 6.76923 7.01099V6.48214C6.76923 6.35119 6.83974 6.28571 6.98077 6.28571H8.25C8.39103 6.28571 8.46154 6.35119 8.46154 6.48214V7.01099C8.46154 7.47831 8.84037 7.85714 9.30769 7.85714C9.77501 7.85714 10.1538 7.47831 10.1538 7.01099V6.48214C10.1538 6.35119 10.2244 6.28571 10.3654 6.28571C10.4822 6.28571 10.5769 6.19101 10.5769 6.07418V2.25866C10.5769 1.76655 10.1786 1.32034 10.1549 0.8288C10.1542 0.814607 10.1538 0.800245 10.1538 0.785714C10.1538 0.572917 10.2376 0.388765 10.405 0.233259C10.5725 0.077753 10.7708 0 11 0C11.2292 0 11.4275 0.077753 11.595 0.233259C11.7624 0.388765 11.8462 0.572917 11.8462 0.785714C11.8462 1.06768 11.717 1.28593 11.4587 1.44048C11.437 1.45347 11.4231 1.47665 11.4231 1.50196C11.4231 1.54033 11.4542 1.57143 11.4925 1.57143H15.0192C15.1603 1.57143 15.2308 1.6369 15.2308 1.76786V4.51786C15.2308 4.64881 15.1603 4.71429 15.0192 4.71429H12.2088C11.7749 4.71429 11.4231 5.06606 11.4231 5.5V6.07418C11.4231 6.19101 11.5178 6.28571 11.6346 6.28571C11.7756 6.28571 11.8462 6.35119 11.8462 6.48214V7.01099C11.8462 7.47831 12.225 7.85714 12.6923 7.85714C13.1596 7.85714 13.5385 7.47831 13.5385 7.01099V6.48214C13.5385 6.35119 13.609 6.28571 13.75 6.28571H15.0192C15.1603 6.28571 15.2308 6.35119 15.2308 6.48214V7.01099C15.2308 7.47831 15.6096 7.85714 16.0769 7.85714C16.5442 7.85714 16.9231 7.47831 16.9231 7.01099V6.48214C16.9231 6.35119 16.9936 6.28571 17.1346 6.28571H18.4038C18.5449 6.28571 18.6154 6.35119 18.6154 6.48214V13.2967C18.6154 13.764 18.9942 14.1429 19.4615 14.1429C19.9289 14.1429 20.3077 13.764 20.3077 13.2967V12.7679C20.3077 12.6369 20.3782 12.5714 20.5192 12.5714H21.7885C21.9295 12.5714 22 12.6369 22 12.7679Z" fill="#D9D9D9"/>
</svg>
