<svg width="20" height="20" viewBox="0 0 20 20" fill="none" xmlns="http://www.w3.org/2000/svg">
<path d="M18.9087 10.9063C19.2453 11.2429 19.4361 11.6993 19.4361 12.1743C19.4361 12.6494 19.2453 13.1057 18.9087 13.4424C18.572 13.779 18.1157 13.9698 17.6406 13.9698H3.27691C2.80074 13.9698 2.34402 13.779 2.00737 13.4424C1.67072 13.1057 1.48145 12.6494 1.48145 12.1743C1.48145 11.6993 1.67072 11.2429 2.00737 10.9063C2.34402 10.5696 2.80074 10.3788 3.27691 10.3788H17.6406C18.1157 10.3788 18.572 10.5696 18.9087 10.9063ZM18.6618 15.3426C18.774 15.4548 18.8376 15.6081 18.8376 15.7652V16.3637C18.8376 16.966 18.587 17.6093 18.1381 18.0582C17.6892 18.5071 17.0459 18.7577 16.4436 18.7577H4.47389C3.83911 18.7577 3.23015 18.5071 2.78129 18.0582C2.33205 17.6093 2.07993 16.966 2.07993 16.3637V15.7652C2.07993 15.6081 2.14315 15.4548 2.25537 15.3426C2.36758 15.2303 2.51982 15.1668 2.67842 15.1668H18.2391C18.3962 15.1668 18.5496 15.2303 18.6618 15.3426ZM2.76782 9.06217C2.60099 8.97987 2.45511 8.86392 2.34065 8.71804C2.22619 8.57215 2.14689 8.40383 2.10799 8.22428C2.06909 8.041 2.07245 7.85397 2.11696 7.67442C2.93951 4.43211 6.36286 2 10.4588 2C14.5547 2 17.9773 4.43211 18.8002 7.67442C18.8451 7.85397 18.8488 8.041 18.8077 8.22428C18.7703 8.40383 18.6917 8.57215 18.5758 8.71804C18.4299 8.86392 18.3177 8.97987 18.1493 9.06217C17.9848 9.14072 17.8015 9.18186 17.6144 9.18186H3.30197C3.11719 9.18186 2.93427 9.14072 2.76782 9.06217ZM14.824 5.16825C14.7118 5.28047 14.6482 5.43383 14.6482 5.59093C14.6482 5.71063 14.6818 5.82659 14.7492 5.92384C14.8165 6.0211 14.8764 6.09965 15.0185 6.14453C15.127 6.15576 15.2467 6.20064 15.3626 6.1782C15.4786 6.15576 15.5871 6.09965 15.6694 6.01361C15.7554 5.93132 15.8115 5.82285 15.8339 5.70689C15.8564 5.59093 15.8115 5.47123 15.8003 5.36276C15.7554 5.22062 15.6768 5.16077 15.5796 5.09344C15.4823 5.02611 15.3664 4.95878 15.2467 4.95878C15.0896 4.95878 14.9362 5.05603 14.824 5.16825ZM10.0361 3.9709C9.92387 4.08311 9.86028 4.23536 9.86028 4.39395C9.86028 4.51216 9.89394 4.62961 9.96127 4.72686C10.0286 4.82412 10.0885 4.90267 10.2306 4.94756C10.3391 4.95878 10.4588 5.00366 10.5747 4.98122C10.6907 4.95878 10.7992 4.90267 10.8814 4.81664C10.9675 4.73435 11.0236 4.62587 11.046 4.51066C11.0685 4.3947 11.0236 4.27426 11.0124 4.16503C10.9675 4.05543 10.8889 3.96192 10.7917 3.89646C10.6944 3.83063 10.5785 3.7618 10.4588 3.7618C10.3017 3.7618 10.1483 3.85868 10.0361 3.9709ZM5.24818 5.16825C5.13596 5.28047 5.07237 5.43383 5.07237 5.59093C5.07237 5.71063 5.10604 5.82659 5.17337 5.92384C5.2407 6.0211 5.30055 6.09965 5.44269 6.14453C5.55116 6.15576 5.67086 6.20064 5.78682 6.1782C5.90278 6.15576 6.01125 6.09965 6.09354 6.01361C6.17958 5.93132 6.23568 5.82285 6.25813 5.70689C6.28057 5.59093 6.23568 5.47123 6.22446 5.36276C6.17958 5.22062 6.10102 5.16077 6.00377 5.09344C5.90652 5.02611 5.79056 4.95878 5.67086 4.95878C5.51376 4.95878 5.3604 5.05603 5.24818 5.16825Z" fill="#D9D9D9"/>
</svg>
