<svg width="20" height="22" viewBox="0 0 20 22" fill="none" xmlns="http://www.w3.org/2000/svg">
<path d="M9.58541 5.48535C9.97505 5.87499 10.5985 6.18671 11.8453 6.57635C13.0143 6.96599 14.9625 7.43356 16.521 8.29077C17.3003 8.68041 18.0017 9.22591 18.5472 9.7714C19.0147 10.3169 19.3264 11.0183 19.3264 11.7975C19.3264 13.434 18.7809 14.4471 18.2354 15.3822C17.6899 16.2394 17.1444 17.1746 17.0665 18.4214H2.26016C2.18223 17.0967 1.55881 16.2394 1.09124 15.3822C0.545741 14.4471 0.000244141 13.512 0.000244141 11.7975C0.000244141 11.0183 0.311957 10.3948 0.779526 9.7714C1.24709 9.22591 2.02638 8.68041 2.80566 8.29077C4.44215 7.43356 6.31243 6.88806 7.48135 6.57635C8.57234 6.18671 9.19577 5.79706 9.58541 5.48535Z" fill="#D9D9D9"/>
<path d="M2.18236 19.2012H16.9887C17.4563 19.2012 17.768 19.5129 17.768 19.9805C17.768 20.448 17.4563 20.7597 16.9887 20.7597H2.18236C1.71479 20.7597 1.40308 20.448 1.40308 19.9805C1.40308 19.5129 1.71479 19.2012 2.18236 19.2012Z" fill="#D9D9D9"/>
<path d="M9.03989 0.108622C8.57232 0.264479 8.10475 0.576191 7.79304 1.12169C7.16961 2.05683 7.4034 3.30368 8.18268 4.08296C8.96196 4.86224 10.2867 4.94017 11.144 4.23882C11.4557 4.00503 11.5336 3.45953 11.2998 3.14782C11.066 2.83611 10.5205 2.75818 10.2088 2.99197C9.8971 3.22575 9.50746 3.22575 9.19575 2.91404C8.88403 2.60232 8.88403 2.21268 9.03989 1.90097C9.27367 1.58926 9.66331 1.4334 9.97503 1.58926C10.3647 1.74511 10.8322 1.58926 10.9881 1.19962C11.1439 0.809976 10.9881 0.342407 10.5985 0.18655C10.5985 0.18655 10.5985 0.18655 10.5205 0.18655C10.1309 -0.0472341 9.58539 -0.047234 9.03989 0.108622Z" fill="#D9D9D9"/>
</svg>
